<?xml version="1.0" encoding="UTF-8" standalone="no"?>
<!-- Created with Inkscape (http://www.inkscape.org/) -->

<svg
   xmlns:dc="http://purl.org/dc/elements/1.1/"
   xmlns:cc="http://creativecommons.org/ns#"
   xmlns:rdf="http://www.w3.org/1999/02/22-rdf-syntax-ns#"
   xmlns:svg="http://www.w3.org/2000/svg"
   xmlns="http://www.w3.org/2000/svg"
   xmlns:sodipodi="http://sodipodi.sourceforge.net/DTD/sodipodi-0.dtd"
   xmlns:inkscape="http://www.inkscape.org/namespaces/inkscape"
   width="531.49603"
   height="531.49603"
   id="svg2"
   version="1.1"
   inkscape:version="0.48.3.1 r9886"
   sodipodi:docname="10cm_parts_tray.svg">
  <sodipodi:namedview
     id="base"
     pagecolor="#ffffff"
     bordercolor="#666666"
     borderopacity="1.0"
     inkscape:pageopacity="0.0"
     inkscape:pageshadow="2"
     inkscape:zoom="0.99906672"
     inkscape:cx="265.74802"
     inkscape:cy="265.74802"
     inkscape:document-units="mm"
     inkscape:current-layer="layer1"
     showgrid="true"
     units="mm"
     borderlayer="true"
     inkscape:showpageshadow="false"
     inkscape:window-width="1280"
     inkscape:window-height="749"
     inkscape:window-x="0"
     inkscape:window-y="27"
     inkscape:window-maximized="1">
    <inkscape:grid
       type="xygrid"
       id="grid2985"
       empspacing="5"
       visible="true"
       enabled="true"
       snapvisiblegridlinesonly="true"
       units="mm"
       spacingx="1mm"
       spacingy="1mm"
       color="#f000ff"
       opacity="0.04705882"
       empcolor="#f000ff"
       empopacity="0.09411765" />
  </sodipodi:namedview>
  <defs
     id="defs4" />
  <metadata
     id="metadata7">
    <rdf:RDF>
      <cc:Work
         rdf:about="">
        <dc:format>image/svg+xml</dc:format>
        <dc:type
           rdf:resource="http://purl.org/dc/dcmitype/StillImage" />
        <dc:title />
      </cc:Work>
    </rdf:RDF>
  </metadata>
  <g
     inkscape:label="Layer 1"
     inkscape:groupmode="layer"
     id="layer1"
     transform="translate(0,-520.866)">
    <g
       transform="matrix(0.46530761,0,0,0.46530761,108.02367,512.73174)"
       style="font-size:35px;font-style:normal;font-variant:normal;font-weight:normal;font-stretch:normal;text-align:center;line-height:125%;letter-spacing:1.20000005px;word-spacing:0px;writing-mode:lr-tb;text-anchor:middle;fill:#000000;fill-opacity:1;stroke:none;font-family:Helvetica CE 55 Roman;-inkscape-font-specification:'Helvetica CE 55 Roman,'"
       id="flowRoot4119">
      <path
         d="m 261.73547,85.03125 3.325,0 0,-10.22 7.63,0 c 2.49665,0.02334 4.39831,-0.618322 5.705,-1.925 1.30664,-1.306653 1.95998,-3.126651 1.96,-5.46 -2e-5,-2.333313 -0.65336,-4.141645 -1.96,-5.425 -1.30669,-1.306642 -3.20835,-1.959975 -5.705,-1.96 l -10.955,0 0,24.99 m 3.325,-22.19 6.51,0 c 1.88998,2.2e-5 3.26665,0.396688 4.13,1.19 0.88665,0.77002 1.32998,1.901686 1.33,3.395 -2e-5,1.493349 -0.44335,2.636682 -1.33,3.43 -0.86335,0.793347 -2.24002,1.178346 -4.13,1.155 l -6.51,0 0,-9.17"
         id="path4345"
         inkscape:connector-curvature="0" />
      <path
         d="m 303.23578,67.35625 c -0.0467,-1.376648 -0.31502,-2.55498 -0.805,-3.535 -0.49002,-1.003311 -1.14335,-1.831644 -1.96,-2.485 -0.81668,-0.653309 -1.77335,-1.131642 -2.87,-1.435 -1.09668,-0.303308 -2.28668,-0.454974 -3.57,-0.455 -1.14334,2.6e-5 -2.26334,0.151692 -3.36,0.455 -1.07334,0.280025 -2.04167,0.723358 -2.905,1.33 -0.84,0.583357 -1.51667,1.341689 -2.03,2.275 -0.51333,0.910021 -0.77,1.99502 -0.77,3.255 0,1.14335 0.22167,2.08835 0.665,2.835 0.46667,0.746681 1.07333,1.365014 1.82,1.855 0.77,0.490013 1.63333,0.886679 2.59,1.19 0.95666,0.280012 1.93666,0.525012 2.94,0.735 1.00332,0.210011 1.98332,0.431678 2.94,0.665 0.95665,0.210011 1.80832,0.490011 2.555,0.84 0.74665,0.326676 1.34165,0.758343 1.785,1.295 0.46665,0.536675 0.69998,1.236674 0.7,2.1 -2e-5,0.910006 -0.18668,1.656672 -0.56,2.24 -0.37335,0.583337 -0.86335,1.050003 -1.47,1.4 -0.60668,0.326669 -1.29501,0.560003 -2.065,0.7 -0.74668,0.140002 -1.49334,0.210002 -2.24,0.21 -0.95668,2e-6 -1.87834,-0.116664 -2.765,-0.35 -0.86334,-0.233331 -1.63334,-0.594997 -2.31,-1.085 -0.65334,-0.489996 -1.19,-1.108329 -1.61,-1.855 -0.39667,-0.769994 -0.595,-1.679993 -0.595,-2.73 l -3.15,0 c 0,1.516673 0.26833,2.835005 0.805,3.955 0.56,1.09667 1.30667,2.006669 2.24,2.73 0.95666,0.723334 2.05333,1.26 3.29,1.61 1.25999,0.35 2.58999,0.524999 3.99,0.525 1.14332,-10e-7 2.28665,-0.14 3.43,-0.42 1.16665,-0.28 2.21665,-0.711666 3.15,-1.295 0.93332,-0.606665 1.69165,-1.376664 2.275,-2.31 0.60665,-0.956662 0.90998,-2.099994 0.91,-3.43 -2e-5,-1.213325 -0.23335,-2.228324 -0.7,-3.045 -0.44335,-0.839989 -1.03835,-1.528322 -1.785,-2.065 -0.74668,-0.536654 -1.59835,-0.956654 -2.555,-1.26 -0.95668,-0.326653 -1.93668,-0.606653 -2.94,-0.84 -1.00334,-0.233319 -1.98334,-0.443319 -2.94,-0.63 -0.95667,-0.209985 -1.82001,-0.466652 -2.59,-0.77 -0.74667,-0.303318 -1.35334,-0.688317 -1.82,-1.155 -0.44334,-0.489983 -0.665,-1.119982 -0.665,-1.89 0,-0.816647 0.15166,-1.493313 0.455,-2.03 0.32666,-0.559979 0.74666,-1.003312 1.26,-1.33 0.53666,-0.326644 1.14333,-0.559978 1.82,-0.7 0.67666,-0.139977 1.36499,-0.209977 2.065,-0.21 1.72666,2.3e-5 3.13832,0.408356 4.235,1.225 1.11999,0.793354 1.77332,2.088353 1.96,3.885 l 3.15,0"
         id="path4347"
         inkscape:connector-curvature="0" />
      <path
         d="m 329.4761,60.04125 -3.325,0 0,15.96 c -2e-5,2.216673 -0.56002,3.908338 -1.68,5.075 -1.09669,1.166669 -2.70669,1.750002 -4.83,1.75 -2.21668,2e-6 -3.93168,-0.583331 -5.145,-1.75 -1.19001,-1.166662 -1.78501,-2.858327 -1.785,-5.075 l 0,-15.96 -3.325,0 0,15.96 c -10e-6,1.656674 0.23333,3.091673 0.7,4.305 0.46666,1.213337 1.13166,2.216669 1.995,3.01 0.88666,0.793334 1.95999,1.376667 3.22,1.75 1.28332,0.373333 2.72998,0.559999 4.34,0.56 3.12665,-10e-7 5.54164,-0.805 7.245,-2.415 1.72664,-1.63333 2.58997,-4.036661 2.59,-7.21 l 0,-15.96"
         id="path4349"
         inkscape:connector-curvature="0" />
      <path
         d="m 337.83906,76.70125 25.9,0 0,-2.8 -25.9,0 0,2.8"
         id="path4351"
         inkscape:connector-curvature="0" />
      <path
         d="m 372.21907,85.03125 17.36,0 0,-2.8 -14.035,0 0,-8.645 12.985,0 0,-2.8 -12.985,0 0,-7.945 13.93,0 0,-2.8 -17.255,0 0,24.99"
         id="path4353"
         inkscape:connector-curvature="0" />
      <path
         d="m 394.81555,85.03125 3.325,0 0,-10.22 7.63,0 c 2.49665,0.02334 4.39831,-0.618322 5.705,-1.925 1.30664,-1.306653 1.95998,-3.126651 1.96,-5.46 -2e-5,-2.333313 -0.65336,-4.141645 -1.96,-5.425 -1.30669,-1.306642 -3.20835,-1.959975 -5.705,-1.96 l -10.955,0 0,24.99 m 3.325,-22.19 6.51,0 c 1.88998,2.2e-5 3.26665,0.396688 4.13,1.19 0.88665,0.77002 1.32998,1.901686 1.33,3.395 -2e-5,1.493349 -0.44335,2.636682 -1.33,3.43 -0.86335,0.793347 -2.24002,1.178346 -4.13,1.155 l -6.51,0 0,-9.17"
         id="path4355"
         inkscape:connector-curvature="0" />
      <path
         d="m 418.71086,85.03125 16.555,0 0,-2.8 -13.23,0 0,-22.19 -3.325,0 0,24.99"
         id="path4357"
         inkscape:connector-curvature="0" />
    </g>
    <g
       transform="matrix(0,-0.49270109,0.49270109,0,-2.1493185,952.78346)"
       style="font-size:35px;font-style:normal;font-variant:normal;font-weight:normal;font-stretch:normal;text-align:center;line-height:125%;letter-spacing:1.20000005px;word-spacing:0px;writing-mode:lr-tb;text-anchor:middle;fill:#000000;fill-opacity:1;stroke:none;font-family:Helvetica CE 55 Roman;-inkscape-font-specification:'Helvetica CE 55 Roman,'"
       id="flowRoot4119-6-2">
      <path
         d="m 222.07996,75.82625 c -2e-5,0.886675 -0.0933,1.750007 -0.28,2.59 -0.18668,0.840006 -0.49002,1.586672 -0.91,2.24 -0.42001,0.653337 -0.98001,1.178337 -1.68,1.575 -0.70001,0.396669 -1.55168,0.595002 -2.555,0.595 -1.02668,2e-6 -1.90168,-0.186664 -2.625,-0.56 -0.72334,-0.396664 -1.31834,-0.909996 -1.785,-1.54 -0.44334,-0.629995 -0.77001,-1.353328 -0.98,-2.17 -0.21,-0.839993 -0.315,-1.703325 -0.315,-2.59 0,-0.83999 0.0933,-1.668323 0.28,-2.485 0.20999,-0.816654 0.53666,-1.539987 0.98,-2.17 0.44333,-0.653319 1.01499,-1.178318 1.715,-1.575 0.69999,-0.396651 1.55166,-0.594984 2.555,-0.595 0.95666,1.6e-5 1.78499,0.186682 2.485,0.56 0.72332,0.373348 1.30665,0.875014 1.75,1.505 0.46665,0.630013 0.80498,1.353346 1.015,2.17 0.23332,0.793344 0.34998,1.61001 0.35,2.45 m -14,16.135 2.975,0 0,-9.345 0.07,0 c 0.32666,0.536669 0.72333,0.991668 1.19,1.365 0.48999,0.350001 1.00333,0.641667 1.54,0.875 0.53666,0.21 1.07332,0.361666 1.61,0.455 0.53666,0.09333 1.03832,0.14 1.505,0.14 1.37665,0 2.57832,-0.245 3.605,-0.735 1.04998,-0.513333 1.91332,-1.189998 2.59,-2.03 0.69998,-0.86333 1.21332,-1.866662 1.54,-3.01 0.34998,-1.143327 0.52498,-2.356659 0.525,-3.64 -2e-5,-1.283323 -0.17502,-2.496655 -0.525,-3.64 -0.35002,-1.14332 -0.87502,-2.146652 -1.575,-3.01 -0.67668,-0.88665 -1.54002,-1.586649 -2.59,-2.1 -1.02668,-0.513315 -2.24001,-0.769981 -3.64,-0.77 -1.26001,1.9e-5 -2.41501,0.233352 -3.465,0.7 -1.05001,0.443351 -1.82001,1.166683 -2.31,2.17 l -0.07,0 0,-2.45 -2.975,0 0,25.025"
         id="path4260"
         inkscape:connector-curvature="0" />
      <path
         d="m 228.80121,79.32625 c 0.0467,1.120005 0.28,2.07667 0.7,2.87 0.42,0.770002 0.98,1.400001 1.68,1.89 0.7,0.466667 1.49333,0.805 2.38,1.015 0.90999,0.233333 1.87833,0.35 2.905,0.35 0.90999,0 1.81999,-0.09333 2.73,-0.28 0.93332,-0.186667 1.76165,-0.501666 2.485,-0.945 0.74665,-0.443332 1.34165,-1.026665 1.785,-1.75 0.46665,-0.746663 0.69998,-1.656662 0.7,-2.73 -2e-5,-0.863327 -0.17501,-1.58666 -0.525,-2.17 -0.32668,-0.583325 -0.77001,-1.061658 -1.33,-1.435 -0.53668,-0.396657 -1.16668,-0.711657 -1.89,-0.945 -0.70001,-0.233323 -1.42334,-0.431656 -2.17,-0.595 -0.70001,-0.163323 -1.40001,-0.314989 -2.1,-0.455 -0.70001,-0.163322 -1.33001,-0.349989 -1.89,-0.56 -0.56,-0.233322 -1.02667,-0.513321 -1.4,-0.84 -0.35,-0.326654 -0.525,-0.75832 -0.525,-1.295 0,-0.443319 0.11666,-0.816652 0.35,-1.12 0.23333,-0.303318 0.53666,-0.536651 0.91,-0.7 0.37333,-0.186651 0.78166,-0.314984 1.225,-0.385 0.46666,-0.06998 0.92166,-0.104984 1.365,-0.105 0.48999,1.6e-5 0.96833,0.05835 1.435,0.175 0.48999,0.09335 0.92166,0.256682 1.295,0.49 0.39666,0.233348 0.72332,0.548348 0.98,0.945 0.27999,0.373347 0.44332,0.85168 0.49,1.435 l 2.975,0 c -0.07,-1.096653 -0.30335,-2.006652 -0.7,-2.73 -0.39668,-0.74665 -0.93335,-1.329983 -1.61,-1.75 -0.65334,-0.443316 -1.42334,-0.746649 -2.31,-0.91 -0.86334,-0.186648 -1.79667,-0.279981 -2.8,-0.28 -0.79334,1.9e-5 -1.59834,0.105018 -2.415,0.315 -0.79334,0.186685 -1.51667,0.490018 -2.17,0.91 -0.63,0.396684 -1.155,0.921683 -1.575,1.575 -0.39667,0.653348 -0.595,1.435014 -0.595,2.345 0,0.863346 0.16333,1.586678 0.49,2.17 0.35,0.583344 0.805,1.061677 1.365,1.435 0.56,0.373343 1.19,0.676676 1.89,0.91 0.7,0.233342 1.42333,0.431675 2.17,0.595 0.74666,0.163341 1.46999,0.326675 2.17,0.49 0.72332,0.140008 1.35332,0.326674 1.89,0.56 0.55999,0.23334 1.00332,0.536673 1.33,0.91 0.34999,0.350006 0.52499,0.816672 0.525,1.4 -1e-5,0.560004 -0.14001,1.026671 -0.42,1.4 -0.28001,0.350003 -0.64168,0.618336 -1.085,0.805 -0.42001,0.186669 -0.88668,0.315002 -1.4,0.385 -0.51334,0.07 -1.00334,0.105002 -1.47,0.105 -0.60667,2e-6 -1.20167,-0.05833 -1.785,-0.175 -0.56001,-0.116664 -1.07334,-0.303331 -1.54,-0.56 -0.44334,-0.279997 -0.805,-0.641663 -1.085,-1.085 -0.28,-0.443329 -0.43167,-1.003328 -0.455,-1.68 l -2.975,0"
         id="path4262"
         inkscape:connector-curvature="0" />
      <path
         d="m 263.63621,66.93625 -2.975,0 0,10.22 c -10e-6,0.816674 -0.11668,1.575006 -0.35,2.275 -0.21001,0.676672 -0.53668,1.271671 -0.98,1.785 -0.44334,0.513337 -1.00334,0.910003 -1.68,1.19 -0.65334,0.280002 -1.43501,0.420002 -2.345,0.42 -1.14334,2e-6 -2.04167,-0.326664 -2.695,-0.98 -0.65334,-0.653329 -0.98,-1.539995 -0.98,-2.66 l 0,-12.25 -2.975,0 0,11.9 c 0,0.980005 0.0933,1.878338 0.28,2.695 0.21,0.793336 0.56,1.481669 1.05,2.065 0.49,0.583334 1.13166,1.038334 1.925,1.365 0.79333,0.326666 1.78499,0.49 2.975,0.49 1.30666,0 2.44999,-0.268333 3.43,-0.805 1.00332,-0.536666 1.81999,-1.364998 2.45,-2.485 l 0.07,0 0,2.87 2.8,0 0,-18.095"
         id="path4264"
         inkscape:connector-curvature="0" />
      <path
         d="m 268.84863,76.70125 10.115,0 0,-2.8 -10.115,0 0,2.8"
         id="path4266"
         inkscape:connector-curvature="0" />
      <path
         d="m 296.63715,79.29125 c -0.25668,1.190005 -0.79335,2.07667 -1.61,2.66 -0.81668,0.583336 -1.84334,0.875002 -3.08,0.875 -0.98001,2e-6 -1.83167,-0.163331 -2.555,-0.49 -0.72334,-0.326664 -1.31834,-0.75833 -1.785,-1.295 -0.46667,-0.559995 -0.805,-1.189995 -1.015,-1.89 -0.21,-0.723327 -0.30334,-1.481659 -0.28,-2.275 l 13.545,0 c 0.0466,-1.096657 -0.0583,-2.251656 -0.315,-3.465 -0.23335,-1.213321 -0.67668,-2.333319 -1.33,-3.36 -0.63001,-1.026651 -1.48168,-1.86665 -2.555,-2.52 -1.05001,-0.676648 -2.38001,-1.014981 -3.99,-1.015 -1.23667,1.9e-5 -2.38001,0.233352 -3.43,0.7 -1.02667,0.466684 -1.925,1.120017 -2.695,1.96 -0.74667,0.840015 -1.33,1.843347 -1.75,3.01 -0.42,1.143345 -0.63,2.391677 -0.63,3.745 0.0467,1.376674 0.245,2.64834 0.595,3.815 0.37333,1.166671 0.92166,2.170003 1.645,3.01 0.72333,0.840001 1.61,1.505001 2.66,1.995 1.07333,0.466666 2.33333,0.7 3.78,0.7 2.05332,0 3.75665,-0.525 5.11,-1.575 1.35332,-1.049998 2.22832,-2.57833 2.625,-4.585 l -2.94,0 m -10.325,-5.04 c 0.0467,-0.699989 0.19833,-1.353321 0.455,-1.96 0.25666,-0.629987 0.60666,-1.178319 1.05,-1.645 0.44333,-0.466652 0.96833,-0.828318 1.575,-1.085 0.62999,-0.279984 1.32999,-0.419984 2.1,-0.42 0.72332,1.6e-5 1.39999,0.140016 2.03,0.42 0.62999,0.256682 1.16665,0.618348 1.61,1.085 0.46665,0.443347 0.82832,0.980013 1.085,1.61 0.27999,0.630012 0.44332,1.295011 0.49,1.995 l -10.395,0"
         id="path4268"
         inkscape:connector-curvature="0" />
      <path
         d="m 318.24598,75.82625 c -2e-5,0.886675 -0.0933,1.750007 -0.28,2.59 -0.18669,0.840006 -0.49002,1.586672 -0.91,2.24 -0.42002,0.653337 -0.98002,1.178337 -1.68,1.575 -0.70002,0.396669 -1.55168,0.595002 -2.555,0.595 -1.02668,2e-6 -1.90168,-0.186664 -2.625,-0.56 -0.72334,-0.396664 -1.31834,-0.909996 -1.785,-1.54 -0.44334,-0.629995 -0.77001,-1.353328 -0.98,-2.17 -0.21001,-0.839993 -0.31501,-1.703325 -0.315,-2.59 -10e-6,-0.83999 0.0933,-1.668323 0.28,-2.485 0.20999,-0.816654 0.53666,-1.539987 0.98,-2.17 0.44332,-0.653319 1.01499,-1.178318 1.715,-1.575 0.69999,-0.396651 1.55165,-0.594984 2.555,-0.595 0.95665,1.6e-5 1.78498,0.186682 2.485,0.56 0.72332,0.373348 1.30665,0.875014 1.75,1.505 0.46665,0.630013 0.80498,1.353346 1.015,2.17 0.23331,0.793344 0.34998,1.61001 0.35,2.45 m -14,16.135 2.975,0 0,-9.345 0.07,0 c 0.32666,0.536669 0.72332,0.991668 1.19,1.365 0.48999,0.350001 1.00332,0.641667 1.54,0.875 0.53665,0.21 1.07332,0.361666 1.61,0.455 0.53665,0.09333 1.03832,0.14 1.505,0.14 1.37665,0 2.57832,-0.245 3.605,-0.735 1.04998,-0.513333 1.91331,-1.189998 2.59,-2.03 0.69998,-0.86333 1.21331,-1.866662 1.54,-3.01 0.34998,-1.143327 0.52498,-2.356659 0.525,-3.64 -2e-5,-1.283323 -0.17502,-2.496655 -0.525,-3.64 -0.35002,-1.14332 -0.87502,-2.146652 -1.575,-3.01 -0.67669,-0.88665 -1.54002,-1.586649 -2.59,-2.1 -1.02668,-0.513315 -2.24002,-0.769981 -3.64,-0.77 -1.26001,1.9e-5 -2.41501,0.233352 -3.465,0.7 -1.05001,0.443351 -1.82001,1.166683 -2.31,2.17 l -0.07,0 0,-2.45 -2.975,0 0,25.025"
         id="path4270"
         inkscape:connector-curvature="0" />
      <path
         d="m 326.29722,85.03125 2.975,0 0,-24.99 -2.975,0 0,24.99"
         id="path4272"
         inkscape:connector-curvature="0" />
      <path
         d="m 335.7802,85.03125 3.885,0 0,-3.885 -3.885,0 0,3.885"
         id="path4274"
         inkscape:connector-curvature="0" />
      <path
         d="m 353.30223,82.61625 c -0.98001,2e-6 -1.79667,-0.198331 -2.45,-0.595 -0.65334,-0.419997 -1.17834,-0.956663 -1.575,-1.61 -0.39667,-0.676661 -0.67667,-1.423327 -0.84,-2.24 -0.16334,-0.816659 -0.245,-1.633325 -0.245,-2.45 0,-0.863323 0.0933,-1.691656 0.28,-2.485 0.21,-0.793321 0.525,-1.49332 0.945,-2.1 0.44333,-0.606652 1.00333,-1.084985 1.68,-1.435 0.67666,-0.373318 1.49333,-0.559984 2.45,-0.56 0.93332,1.6e-5 1.72666,0.186682 2.38,0.56 0.65332,0.373348 1.17832,0.875014 1.575,1.505 0.41999,0.60668 0.72332,1.295013 0.91,2.065 0.18665,0.770011 0.27999,1.551677 0.28,2.345 -10e-6,0.840009 -0.10501,1.680008 -0.315,2.52 -0.18668,0.840006 -0.49001,1.598339 -0.91,2.275 -0.42001,0.653337 -0.98001,1.190003 -1.68,1.61 -0.67668,0.396669 -1.50501,0.595002 -2.485,0.595 m 8.33,-15.68 -2.8,0 0,2.59 -0.07,0 c -0.53668,-1.003317 -1.28334,-1.749983 -2.24,-2.24 -0.93334,-0.513315 -1.97168,-0.769981 -3.115,-0.77 -1.56334,1.9e-5 -2.88167,0.303352 -3.955,0.91 -1.07334,0.58335 -1.93667,1.341683 -2.59,2.275 -0.65333,0.933348 -1.12,1.960013 -1.4,3.08 -0.28,1.120011 -0.42,2.216677 -0.42,3.29 0,1.236674 0.16333,2.415007 0.49,3.535 0.35,1.096671 0.86333,2.065003 1.54,2.905 0.67666,0.840002 1.51666,1.505001 2.52,1.995 1.00333,0.49 2.18166,0.735 3.535,0.735 0.55999,0 1.11999,-0.07 1.68,-0.21 0.58332,-0.14 1.11999,-0.338333 1.61,-0.595 0.51332,-0.279999 0.96832,-0.618332 1.365,-1.015 0.39665,-0.419998 0.72332,-0.909997 0.98,-1.47 l 0.07,0 0,1.19 c -10e-6,1.026668 -0.10501,1.96 -0.315,2.8 -0.18668,0.839998 -0.50168,1.551664 -0.945,2.135 -0.44334,0.606663 -1.00334,1.073329 -1.68,1.4 -0.67668,0.349995 -1.50501,0.524995 -2.485,0.525 -0.49001,-5e-6 -1.00334,-0.05834 -1.54,-0.175 -0.53667,-0.09334 -1.03834,-0.256671 -1.505,-0.49 -0.44334,-0.233337 -0.82834,-0.53667 -1.155,-0.91 -0.30334,-0.373336 -0.46667,-0.828336 -0.49,-1.365 l -2.975,0 c 0.0467,0.979997 0.30333,1.808329 0.77,2.485 0.46667,0.676661 1.05,1.224994 1.75,1.645 0.72333,0.419993 1.51666,0.723326 2.38,0.91 0.88666,0.186659 1.74999,0.279993 2.59,0.28 2.86999,-7e-6 4.98165,-0.746673 6.335,-2.24 1.37665,-1.470004 2.06498,-3.686668 2.065,-6.65 l 0,-16.555"
         id="path4276"
         inkscape:connector-curvature="0" />
      <path
         d="m 367.49489,85.03125 2.975,0 0,-18.095 -2.975,0 0,18.095 m 2.975,-24.99 -2.975,0 0,3.64 2.975,0 0,-3.64"
         id="path4278"
         inkscape:connector-curvature="0" />
      <path
         d="m 380.44285,61.51125 -2.975,0 0,5.425 -3.08,0 0,2.625 3.08,0 0,11.515 c 0,0.840003 0.0817,1.516669 0.245,2.03 0.16333,0.513335 0.40833,0.910001 0.735,1.19 0.35,0.28 0.79333,0.478334 1.33,0.595 0.55999,0.09333 1.22499,0.14 1.995,0.14 l 2.275,0 0,-2.625 -1.365,0 c -0.46667,3e-6 -0.85167,-0.01166 -1.155,-0.035 -0.28001,-0.04666 -0.50167,-0.128331 -0.665,-0.245 -0.16334,-0.116664 -0.28001,-0.279997 -0.35,-0.49 -0.0467,-0.209996 -0.07,-0.489996 -0.07,-0.84 l 0,-11.235 3.605,0 0,-2.625 -3.605,0 0,-5.425"
         id="path4280"
         inkscape:connector-curvature="0" />
      <path
         d="m 388.51871,85.03125 2.975,0 0,-10.22 c -1e-5,-0.816656 0.10499,-1.563322 0.315,-2.24 0.23333,-0.699987 0.57166,-1.306653 1.015,-1.82 0.44332,-0.513319 0.99166,-0.909985 1.645,-1.19 0.67666,-0.279984 1.46999,-0.419984 2.38,-0.42 1.14332,1.6e-5 2.04165,0.326682 2.695,0.98 0.65332,0.653348 0.97998,1.540013 0.98,2.66 l 0,12.25 2.975,0 0,-11.9 c -2e-5,-0.979987 -0.10502,-1.866653 -0.315,-2.66 -0.18669,-0.816651 -0.52502,-1.516651 -1.015,-2.1 -0.49002,-0.583316 -1.13168,-1.038316 -1.925,-1.365 -0.79335,-0.326648 -1.78501,-0.489981 -2.975,-0.49 -0.53668,1.9e-5 -1.09668,0.05835 -1.68,0.175 -0.56001,0.116685 -1.09668,0.303351 -1.61,0.56 -0.51334,0.233351 -0.99168,0.548351 -1.435,0.945 -0.42001,0.396683 -0.74667,0.863349 -0.98,1.4 l -0.07,0 0,-9.555 -2.975,0 0,24.99"
         id="path4282"
         inkscape:connector-curvature="0" />
      <path
         d="m 424.18113,66.93625 -2.975,0 0,10.22 c -2e-5,0.816674 -0.11668,1.575006 -0.35,2.275 -0.21002,0.676672 -0.53668,1.271671 -0.98,1.785 -0.44335,0.513337 -1.00335,0.910003 -1.68,1.19 -0.65335,0.280002 -1.43501,0.420002 -2.345,0.42 -1.14334,2e-6 -2.04168,-0.326664 -2.695,-0.98 -0.65334,-0.653329 -0.98001,-1.539995 -0.98,-2.66 l 0,-12.25 -2.975,0 0,11.9 c -10e-6,0.980005 0.0933,1.878338 0.28,2.695 0.20999,0.793336 0.55999,1.481669 1.05,2.065 0.48999,0.583334 1.13166,1.038334 1.925,1.365 0.79332,0.326666 1.78499,0.49 2.975,0.49 1.30665,0 2.44999,-0.268333 3.43,-0.805 1.00332,-0.536666 1.81998,-1.364998 2.45,-2.485 l 0.07,0 0,2.87 2.8,0 0,-18.095"
         id="path4284"
         inkscape:connector-curvature="0" />
      <path
         d="m 443.98856,75.82625 c -2e-5,0.886675 -0.0933,1.750007 -0.28,2.59 -0.18668,0.840006 -0.49002,1.586672 -0.91,2.24 -0.42001,0.653337 -0.98001,1.178337 -1.68,1.575 -0.70001,0.396669 -1.55168,0.595002 -2.555,0.595 -1.02668,2e-6 -1.90168,-0.186664 -2.625,-0.56 -0.72334,-0.396664 -1.31834,-0.909996 -1.785,-1.54 -0.44334,-0.629995 -0.77001,-1.353328 -0.98,-2.17 -0.21,-0.839993 -0.315,-1.703325 -0.315,-2.59 0,-0.83999 0.0933,-1.668323 0.28,-2.485 0.20999,-0.816654 0.53666,-1.539987 0.98,-2.17 0.44333,-0.653319 1.01499,-1.178318 1.715,-1.575 0.69999,-0.396651 1.55166,-0.594984 2.555,-0.595 0.95666,1.6e-5 1.78499,0.186682 2.485,0.56 0.72332,0.373348 1.30665,0.875014 1.75,1.505 0.46665,0.630013 0.80498,1.353346 1.015,2.17 0.23332,0.793344 0.34998,1.61001 0.35,2.45 m -14,9.205 2.975,0 0,-2.415 0.07,0 c 0.32666,0.536669 0.72333,0.991668 1.19,1.365 0.48999,0.350001 1.00333,0.641667 1.54,0.875 0.53666,0.21 1.07332,0.361666 1.61,0.455 0.53666,0.09333 1.03832,0.14 1.505,0.14 1.37665,0 2.57832,-0.245 3.605,-0.735 1.04998,-0.513333 1.91332,-1.189998 2.59,-2.03 0.69998,-0.86333 1.21332,-1.866662 1.54,-3.01 0.34998,-1.143327 0.52498,-2.356659 0.525,-3.64 -2e-5,-1.283323 -0.17502,-2.496655 -0.525,-3.64 -0.35002,-1.14332 -0.87502,-2.146652 -1.575,-3.01 -0.67668,-0.88665 -1.54002,-1.586649 -2.59,-2.1 -1.02668,-0.513315 -2.24001,-0.769981 -3.64,-0.77 -1.26001,1.9e-5 -2.41501,0.233352 -3.465,0.7 -1.05001,0.443351 -1.82001,1.166683 -2.31,2.17 l -0.07,0 0,-9.345 -2.975,0 0,24.99"
         id="path4286"
         inkscape:connector-curvature="0" />
      <path
         d="m 451.64114,85.03125 3.885,0 0,-3.885 -3.885,0 0,3.885"
         id="path4288"
         inkscape:connector-curvature="0" />
      <path
         d="m 462.05816,85.03125 2.975,0 0,-18.095 -2.975,0 0,18.095 m 2.975,-24.99 -2.975,0 0,3.64 2.975,0 0,-3.64"
         id="path4290"
         inkscape:connector-curvature="0" />
      <path
         d="m 469.89614,76.00125 c 0,1.330008 0.18667,2.566673 0.56,3.71 0.37334,1.143338 0.93334,2.14667 1.68,3.01 0.74667,0.840001 1.65667,1.505001 2.73,1.995 1.09666,0.49 2.36833,0.735 3.815,0.735 1.42333,0 2.68333,-0.245 3.78,-0.735 1.09666,-0.489999 2.01832,-1.154999 2.765,-1.995 0.74665,-0.86333 1.30665,-1.866662 1.68,-3.01 0.37332,-1.143327 0.55999,-2.379992 0.56,-3.71 -10e-6,-1.32999 -0.18668,-2.566655 -0.56,-3.71 -0.37335,-1.166653 -0.93335,-2.169985 -1.68,-3.01 -0.74668,-0.863317 -1.66834,-1.539983 -2.765,-2.03 -1.09667,-0.489982 -2.35667,-0.734981 -3.78,-0.735 -1.44667,1.9e-5 -2.71834,0.245018 -3.815,0.735 -1.07333,0.490017 -1.98333,1.166683 -2.73,2.03 -0.74666,0.840015 -1.30666,1.843347 -1.68,3.01 -0.37333,1.143345 -0.56,2.38001 -0.56,3.71 m 3.15,0 c 0,-1.096657 0.14,-2.064989 0.42,-2.905 0.30333,-0.863321 0.71167,-1.586653 1.225,-2.17 0.51333,-0.583319 1.10833,-1.026652 1.785,-1.33 0.7,-0.303318 1.435,-0.454984 2.205,-0.455 0.76999,1.6e-5 1.49333,0.151682 2.17,0.455 0.69999,0.303348 1.30666,0.746681 1.82,1.33 0.51332,0.583347 0.90999,1.306679 1.19,2.17 0.30332,0.840011 0.45499,1.808343 0.455,2.905 -1e-5,1.096675 -0.15168,2.076674 -0.455,2.94 -0.28001,0.840005 -0.67668,1.551671 -1.19,2.135 -0.51334,0.560003 -1.12001,0.99167 -1.82,1.295 -0.67667,0.303336 -1.40001,0.455002 -2.17,0.455 -0.77,2e-6 -1.505,-0.151664 -2.205,-0.455 -0.67667,-0.30333 -1.27167,-0.734997 -1.785,-1.295 -0.51333,-0.583329 -0.92167,-1.294995 -1.225,-2.135 -0.28,-0.863326 -0.42,-1.843325 -0.42,-2.94"
         id="path4292"
         inkscape:connector-curvature="0" />
    </g>
    <g
       id="g3594"
       style="stroke:#ff0000;stroke-opacity:1"
       transform="translate(-64.38189,138.72047)">
      <path
         inkscape:connector-curvature="0"
         inkscape:label="part"
         style="fill:none;stroke:#ff0000;stroke-opacity:1"
         d="m 146.48032,860.49197 17.98872,0 0,-11.23228 18.03543,0 0,11.23228 17.82928,0 0,-11.23228 18.03543,0 0,11.23228 17.82928,0 0,-11.23228 18.03543,0 0,11.23228 17.82928,0 0,-11.23228 18.03543,0 0,11.23228 17.82928,0 0,-11.23228 18.03544,0 0,11.23228 17.82927,0 0,-11.23228 18.03544,0 0,11.23228 17.82927,0 0,-11.23228 18.03544,0 0,11.23228 17.82927,0 0,-11.23228 18.03544,0 0,11.23228 17.82927,0 0,-11.23228 18.03544,0 0,11.23228 17.82927,0 0,-11.23228 18.03544,0 0,11.23228 17.98872,0"
         id="path3447" />
      <path
         inkscape:connector-curvature="0"
         inkscape:label="part"
         style="fill:none;stroke:#ff0000;stroke-opacity:1"
         d="m 523.27559,860.49197 0,9.01772 -11.23228,0 0,17.39763 11.23228,0 0,9.01772 -376.79527,0 0,-9.01772 11.23228,0 0,-17.39763 -11.23228,0 0,-9.01772"
         id="path3449"
         sodipodi:nodetypes="cccccccccccc" />
    </g>
    <g
       id="g3599"
       style="stroke:#ff0000;stroke-opacity:1"
       transform="translate(-64.38189,138.72047)">
      <path
         inkscape:connector-curvature="0"
         inkscape:label="part"
         style="fill:none;stroke:#ff0000;stroke-opacity:1"
         d="m 117.5315,465.98016 0,6.75644 11.23228,0 0,18.03543 -11.23228,0 0,17.82928 11.23228,0 0,18.03543 -11.23228,0 0,17.82928 11.23228,0 0,18.03543 -11.23228,0 0,17.82928 11.23228,0 0,18.03543 -11.23228,0 0,17.82928 11.23228,0 0,18.03543 -11.23228,0 0,17.82928 11.23228,0 0,18.03543 -11.23228,0 0,17.82928 11.23228,0 0,18.03543 -11.23228,0 0,17.82928 11.23228,0 0,18.03543 -11.23228,0 0,17.82928 11.23228,0 0,18.03543 -11.23228,0 0,17.82928 11.23228,0 0,18.03543 -11.23228,0 0,6.75645"
         id="path3457" />
      <path
         inkscape:connector-curvature="0"
         inkscape:label="part"
         style="fill:none;stroke:#ff0000;stroke-opacity:1"
         d="m 117.5315,820.31087 -8.69882,0 0,11.23228 -18.035436,0 0,-11.23228 -8.698819,0 0,-354.33071 8.698819,0 0,-11.23229 18.035436,0 0,11.23229 8.69882,0"
         id="path3459"
         sodipodi:nodetypes="cccccccccccc" />
    </g>
    <g
       id="g3604"
       style="stroke:#ff0000;stroke-opacity:1"
       transform="translate(-64.38189,138.72047)">
      <path
         inkscape:connector-curvature="0"
         inkscape:label="part"
         style="fill:none;stroke:#ff0000;stroke-opacity:1"
         d="m 146.48032,454.74787 18.30762,0 0,11.23229 17.39764,0 0,-11.23229 18.46707,0 0,11.23229 17.39764,0 0,-11.23229 18.46707,0 0,11.23229 17.39764,0 0,-11.23229 18.46707,0 0,11.23229 17.39764,0 0,-11.23229 18.46707,0 0,11.23229 17.39764,0 0,-11.23229 18.46707,0 0,11.23229 17.39764,0 0,-11.23229 18.46707,0 0,11.23229 17.39764,0 0,-11.23229 18.46707,0 0,11.23229 17.39764,0 0,-11.23229 18.46707,0 0,11.23229 17.39764,0 0,-11.23229 18.46707,0 0,11.23229 17.39764,0 0,-11.23229 18.30762,0"
         id="path3463" />
      <path
         inkscape:connector-curvature="0"
         inkscape:label="part"
         style="fill:none;stroke:#ff0000;stroke-opacity:1"
         d="m 523.27559,454.74787 0,18.30763 -11.23228,0 0,17.39764 11.23228,0 0,18.46707 -11.23228,0 0,17.39764 11.23228,0 0,18.46707 -11.23228,0 0,17.39764 11.23228,0 0,18.46707 -11.23228,0 0,17.39764 11.23228,0 0,18.46707 -11.23228,0 0,17.39764 11.23228,0 0,18.46707 -11.23228,0 0,17.39764 11.23228,0 0,18.46707 -11.23228,0 0,17.39764 11.23228,0 0,18.46707 -11.23228,0 0,17.39764 11.23228,0 0,18.46707 -11.23228,0 0,17.39764 11.23228,0 0,18.46707 -11.23228,0 0,17.39764 11.23228,0 0,18.30762"
         id="path3465" />
      <path
         inkscape:connector-curvature="0"
         inkscape:label="part"
         style="fill:none;stroke:#ff0000;stroke-opacity:1"
         d="m 523.27559,831.54315 -18.30762,0 0,-11.23228 -17.39764,0 0,11.23228 -18.46707,0 0,-11.23228 -17.39764,0 0,11.23228 -18.46707,0 0,-11.23228 -17.39764,0 0,11.23228 -18.46707,0 0,-11.23228 -17.39764,0 0,11.23228 -18.46707,0 0,-11.23228 -17.39764,0 0,11.23228 -18.46707,0 0,-11.23228 -17.39764,0 0,11.23228 -18.46707,0 0,-11.23228 -17.39764,0 0,11.23228 -18.46707,0 0,-11.23228 -17.39764,0 0,11.23228 -18.46707,0 0,-11.23228 -17.39764,0 0,11.23228 -18.46707,0 0,-11.23228 -17.39764,0 0,11.23228 -18.30762,0"
         id="path3467" />
      <path
         inkscape:connector-curvature="0"
         inkscape:label="part"
         style="fill:none;stroke:#ff0000;stroke-opacity:1"
         d="m 146.48032,831.54315 0,-18.30762 11.23228,0 0,-17.39764 -11.23228,0 0,-18.46707 11.23228,0 0,-17.39764 -11.23228,0 0,-18.46707 11.23228,0 0,-17.39764 -11.23228,0 0,-18.46707 11.23228,0 0,-17.39764 -11.23228,0 0,-18.46707 11.23228,0 0,-17.39764 -11.23228,0 0,-18.46707 11.23228,0 0,-17.39764 -11.23228,0 0,-18.46707 11.23228,0 0,-17.39764 -11.23228,0 0,-18.46707 11.23228,0 0,-17.39764 -11.23228,0 0,-18.46707 11.23228,0 0,-17.39764 -11.23228,0 0,-18.46707 11.23228,0 0,-17.39764 -11.23228,0 0,-18.30763"
         id="path3469" />
    </g>
    <g
       id="g3589"
       style="stroke:#ff0000;stroke-opacity:1"
       transform="translate(-64.38189,138.72047)">
      <path
         inkscape:connector-curvature="0"
         inkscape:label="part"
         style="fill:none;stroke:#ff0000;stroke-opacity:1"
         d="m 552.22441,465.98016 8.69882,0 0,-11.23229 18.03543,0 0,11.23229 8.69882,0 0,354.33071 -8.69882,0 0,11.23228 -18.03543,0 0,-11.23228 -8.69882,0"
         id="path3471"
         sodipodi:nodetypes="cccccccccccc" />
      <path
         inkscape:connector-curvature="0"
         inkscape:label="part"
         style="fill:none;stroke:#ff0000;stroke-opacity:1"
         d="m 552.22441,820.31087 0,-6.75645 -11.23228,0 0,-18.03543 11.23228,0 0,-17.82928 -11.23228,0 0,-18.03543 11.23228,0 0,-17.82928 -11.23228,0 0,-18.03543 11.23228,0 0,-17.82928 -11.23228,0 0,-18.03543 11.23228,0 0,-17.82928 -11.23228,0 0,-18.03543 11.23228,0 0,-17.82928 -11.23228,0 0,-18.03543 11.23228,0 0,-17.82928 -11.23228,0 0,-18.03543 11.23228,0 0,-17.82928 -11.23228,0 0,-18.03543 11.23228,0 0,-17.82928 -11.23228,0 0,-18.03543 11.23228,0 0,-17.82928 -11.23228,0 0,-18.03543 11.23228,0 0,-6.75644"
         id="path3477" />
    </g>
    <g
       id="g3584"
       style="stroke:#ff0000;stroke-opacity:1"
       transform="translate(-64.38189,138.72047)">
      <path
         inkscape:connector-curvature="0"
         inkscape:label="part"
         style="fill:none;stroke:#ff0000;stroke-opacity:1"
         d="m 523.27559,425.79906 -17.98872,0 0,11.23228 -18.03544,0 0,-11.23228 -17.82927,0 0,11.23228 -18.03544,0 0,-11.23228 -17.82927,0 0,11.23228 -18.03544,0 0,-11.23228 -17.82927,0 0,11.23228 -18.03544,0 0,-11.23228 -17.82927,0 0,11.23228 -18.03544,0 0,-11.23228 -17.82927,0 0,11.23228 -18.03544,0 0,-11.23228 -17.82928,0 0,11.23228 -18.03543,0 0,-11.23228 -17.82928,0 0,11.23228 -18.03543,0 0,-11.23228 -17.82928,0 0,11.23228 -18.03543,0 0,-11.23228 -17.82928,0 0,11.23228 -18.03543,0 0,-11.23228 -17.98872,0"
         id="path3491" />
      <path
         inkscape:connector-curvature="0"
         inkscape:label="part"
         style="fill:none;stroke:#ff0000;stroke-opacity:1"
         d="m 146.48032,425.79906 0,-9.01772 11.23228,0 0,-17.39764 -11.23228,0 0,-9.01772 376.79527,0 0,9.01772 -11.23228,0 0,17.39764 11.23228,0 0,9.01772"
         id="path3493"
         sodipodi:nodetypes="cccccccccccc" />
    </g>
    <g
       transform="matrix(-0.46530761,0,0,-0.46530761,433.36417,1049.4203)"
       style="font-size:35px;font-style:normal;font-variant:normal;font-weight:normal;font-stretch:normal;text-align:center;line-height:125%;letter-spacing:1.20000005px;word-spacing:0px;writing-mode:lr-tb;text-anchor:middle;fill:#000000;fill-opacity:1;stroke:none;font-family:Helvetica CE 55 Roman;-inkscape-font-specification:'Helvetica CE 55 Roman,'"
       id="flowRoot4119-3">
      <path
         d="m 261.73547,85.03125 3.325,0 0,-10.22 7.63,0 c 2.49665,0.02334 4.39831,-0.618322 5.705,-1.925 1.30664,-1.306653 1.95998,-3.126651 1.96,-5.46 -2e-5,-2.333313 -0.65336,-4.141645 -1.96,-5.425 -1.30669,-1.306642 -3.20835,-1.959975 -5.705,-1.96 l -10.955,0 0,24.99 m 3.325,-22.19 6.51,0 c 1.88998,2.2e-5 3.26665,0.396688 4.13,1.19 0.88665,0.77002 1.32998,1.901686 1.33,3.395 -2e-5,1.493349 -0.44335,2.636682 -1.33,3.43 -0.86335,0.793347 -2.24002,1.178346 -4.13,1.155 l -6.51,0 0,-9.17"
         id="path4345-1"
         inkscape:connector-curvature="0" />
      <path
         d="m 303.23578,67.35625 c -0.0467,-1.376648 -0.31502,-2.55498 -0.805,-3.535 -0.49002,-1.003311 -1.14335,-1.831644 -1.96,-2.485 -0.81668,-0.653309 -1.77335,-1.131642 -2.87,-1.435 -1.09668,-0.303308 -2.28668,-0.454974 -3.57,-0.455 -1.14334,2.6e-5 -2.26334,0.151692 -3.36,0.455 -1.07334,0.280025 -2.04167,0.723358 -2.905,1.33 -0.84,0.583357 -1.51667,1.341689 -2.03,2.275 -0.51333,0.910021 -0.77,1.99502 -0.77,3.255 0,1.14335 0.22167,2.08835 0.665,2.835 0.46667,0.746681 1.07333,1.365014 1.82,1.855 0.77,0.490013 1.63333,0.886679 2.59,1.19 0.95666,0.280012 1.93666,0.525012 2.94,0.735 1.00332,0.210011 1.98332,0.431678 2.94,0.665 0.95665,0.210011 1.80832,0.490011 2.555,0.84 0.74665,0.326676 1.34165,0.758343 1.785,1.295 0.46665,0.536675 0.69998,1.236674 0.7,2.1 -2e-5,0.910006 -0.18668,1.656672 -0.56,2.24 -0.37335,0.583337 -0.86335,1.050003 -1.47,1.4 -0.60668,0.326669 -1.29501,0.560003 -2.065,0.7 -0.74668,0.140002 -1.49334,0.210002 -2.24,0.21 -0.95668,2e-6 -1.87834,-0.116664 -2.765,-0.35 -0.86334,-0.233331 -1.63334,-0.594997 -2.31,-1.085 -0.65334,-0.489996 -1.19,-1.108329 -1.61,-1.855 -0.39667,-0.769994 -0.595,-1.679993 -0.595,-2.73 l -3.15,0 c 0,1.516673 0.26833,2.835005 0.805,3.955 0.56,1.09667 1.30667,2.006669 2.24,2.73 0.95666,0.723334 2.05333,1.26 3.29,1.61 1.25999,0.35 2.58999,0.524999 3.99,0.525 1.14332,-10e-7 2.28665,-0.14 3.43,-0.42 1.16665,-0.28 2.21665,-0.711666 3.15,-1.295 0.93332,-0.606665 1.69165,-1.376664 2.275,-2.31 0.60665,-0.956662 0.90998,-2.099994 0.91,-3.43 -2e-5,-1.213325 -0.23335,-2.228324 -0.7,-3.045 -0.44335,-0.839989 -1.03835,-1.528322 -1.785,-2.065 -0.74668,-0.536654 -1.59835,-0.956654 -2.555,-1.26 -0.95668,-0.326653 -1.93668,-0.606653 -2.94,-0.84 -1.00334,-0.233319 -1.98334,-0.443319 -2.94,-0.63 -0.95667,-0.209985 -1.82001,-0.466652 -2.59,-0.77 -0.74667,-0.303318 -1.35334,-0.688317 -1.82,-1.155 -0.44334,-0.489983 -0.665,-1.119982 -0.665,-1.89 0,-0.816647 0.15166,-1.493313 0.455,-2.03 0.32666,-0.559979 0.74666,-1.003312 1.26,-1.33 0.53666,-0.326644 1.14333,-0.559978 1.82,-0.7 0.67666,-0.139977 1.36499,-0.209977 2.065,-0.21 1.72666,2.3e-5 3.13832,0.408356 4.235,1.225 1.11999,0.793354 1.77332,2.088353 1.96,3.885 l 3.15,0"
         id="path4347-0"
         inkscape:connector-curvature="0" />
      <path
         d="m 329.4761,60.04125 -3.325,0 0,15.96 c -2e-5,2.216673 -0.56002,3.908338 -1.68,5.075 -1.09669,1.166669 -2.70669,1.750002 -4.83,1.75 -2.21668,2e-6 -3.93168,-0.583331 -5.145,-1.75 -1.19001,-1.166662 -1.78501,-2.858327 -1.785,-5.075 l 0,-15.96 -3.325,0 0,15.96 c -10e-6,1.656674 0.23333,3.091673 0.7,4.305 0.46666,1.213337 1.13166,2.216669 1.995,3.01 0.88666,0.793334 1.95999,1.376667 3.22,1.75 1.28332,0.373333 2.72998,0.559999 4.34,0.56 3.12665,-10e-7 5.54164,-0.805 7.245,-2.415 1.72664,-1.63333 2.58997,-4.036661 2.59,-7.21 l 0,-15.96"
         id="path4349-1"
         inkscape:connector-curvature="0" />
      <path
         d="m 337.83906,76.70125 25.9,0 0,-2.8 -25.9,0 0,2.8"
         id="path4351-5"
         inkscape:connector-curvature="0" />
      <path
         d="m 372.21907,85.03125 17.36,0 0,-2.8 -14.035,0 0,-8.645 12.985,0 0,-2.8 -12.985,0 0,-7.945 13.93,0 0,-2.8 -17.255,0 0,24.99"
         id="path4353-0"
         inkscape:connector-curvature="0" />
      <path
         d="m 394.81555,85.03125 3.325,0 0,-10.22 7.63,0 c 2.49665,0.02334 4.39831,-0.618322 5.705,-1.925 1.30664,-1.306653 1.95998,-3.126651 1.96,-5.46 -2e-5,-2.333313 -0.65336,-4.141645 -1.96,-5.425 -1.30669,-1.306642 -3.20835,-1.959975 -5.705,-1.96 l -10.955,0 0,24.99 m 3.325,-22.19 6.51,0 c 1.88998,2.2e-5 3.26665,0.396688 4.13,1.19 0.88665,0.77002 1.32998,1.901686 1.33,3.395 -2e-5,1.493349 -0.44335,2.636682 -1.33,3.43 -0.86335,0.793347 -2.24002,1.178346 -4.13,1.155 l -6.51,0 0,-9.17"
         id="path4355-6"
         inkscape:connector-curvature="0" />
      <path
         d="m 418.71086,85.03125 16.555,0 0,-2.8 -13.23,0 0,-22.19 -3.325,0 0,24.99"
         id="path4357-8"
         inkscape:connector-curvature="0" />
    </g>
    <g
       transform="matrix(0,0.49270109,-0.49270109,0,543.57934,610.02317)"
       style="font-size:35px;font-style:normal;font-variant:normal;font-weight:normal;font-stretch:normal;text-align:center;line-height:125%;letter-spacing:1.20000005px;word-spacing:0px;writing-mode:lr-tb;text-anchor:middle;fill:#000000;fill-opacity:1;stroke:none;font-family:Helvetica CE 55 Roman;-inkscape-font-specification:'Helvetica CE 55 Roman,'"
       id="flowRoot4119-6-2-3">
      <path
         d="m 222.07996,75.82625 c -2e-5,0.886675 -0.0933,1.750007 -0.28,2.59 -0.18668,0.840006 -0.49002,1.586672 -0.91,2.24 -0.42001,0.653337 -0.98001,1.178337 -1.68,1.575 -0.70001,0.396669 -1.55168,0.595002 -2.555,0.595 -1.02668,2e-6 -1.90168,-0.186664 -2.625,-0.56 -0.72334,-0.396664 -1.31834,-0.909996 -1.785,-1.54 -0.44334,-0.629995 -0.77001,-1.353328 -0.98,-2.17 -0.21,-0.839993 -0.315,-1.703325 -0.315,-2.59 0,-0.83999 0.0933,-1.668323 0.28,-2.485 0.20999,-0.816654 0.53666,-1.539987 0.98,-2.17 0.44333,-0.653319 1.01499,-1.178318 1.715,-1.575 0.69999,-0.396651 1.55166,-0.594984 2.555,-0.595 0.95666,1.6e-5 1.78499,0.186682 2.485,0.56 0.72332,0.373348 1.30665,0.875014 1.75,1.505 0.46665,0.630013 0.80498,1.353346 1.015,2.17 0.23332,0.793344 0.34998,1.61001 0.35,2.45 m -14,16.135 2.975,0 0,-9.345 0.07,0 c 0.32666,0.536669 0.72333,0.991668 1.19,1.365 0.48999,0.350001 1.00333,0.641667 1.54,0.875 0.53666,0.21 1.07332,0.361666 1.61,0.455 0.53666,0.09333 1.03832,0.14 1.505,0.14 1.37665,0 2.57832,-0.245 3.605,-0.735 1.04998,-0.513333 1.91332,-1.189998 2.59,-2.03 0.69998,-0.86333 1.21332,-1.866662 1.54,-3.01 0.34998,-1.143327 0.52498,-2.356659 0.525,-3.64 -2e-5,-1.283323 -0.17502,-2.496655 -0.525,-3.64 -0.35002,-1.14332 -0.87502,-2.146652 -1.575,-3.01 -0.67668,-0.88665 -1.54002,-1.586649 -2.59,-2.1 -1.02668,-0.513315 -2.24001,-0.769981 -3.64,-0.77 -1.26001,1.9e-5 -2.41501,0.233352 -3.465,0.7 -1.05001,0.443351 -1.82001,1.166683 -2.31,2.17 l -0.07,0 0,-2.45 -2.975,0 0,25.025"
         id="path4260-1"
         inkscape:connector-curvature="0" />
      <path
         d="m 228.80121,79.32625 c 0.0467,1.120005 0.28,2.07667 0.7,2.87 0.42,0.770002 0.98,1.400001 1.68,1.89 0.7,0.466667 1.49333,0.805 2.38,1.015 0.90999,0.233333 1.87833,0.35 2.905,0.35 0.90999,0 1.81999,-0.09333 2.73,-0.28 0.93332,-0.186667 1.76165,-0.501666 2.485,-0.945 0.74665,-0.443332 1.34165,-1.026665 1.785,-1.75 0.46665,-0.746663 0.69998,-1.656662 0.7,-2.73 -2e-5,-0.863327 -0.17501,-1.58666 -0.525,-2.17 -0.32668,-0.583325 -0.77001,-1.061658 -1.33,-1.435 -0.53668,-0.396657 -1.16668,-0.711657 -1.89,-0.945 -0.70001,-0.233323 -1.42334,-0.431656 -2.17,-0.595 -0.70001,-0.163323 -1.40001,-0.314989 -2.1,-0.455 -0.70001,-0.163322 -1.33001,-0.349989 -1.89,-0.56 -0.56,-0.233322 -1.02667,-0.513321 -1.4,-0.84 -0.35,-0.326654 -0.525,-0.75832 -0.525,-1.295 0,-0.443319 0.11666,-0.816652 0.35,-1.12 0.23333,-0.303318 0.53666,-0.536651 0.91,-0.7 0.37333,-0.186651 0.78166,-0.314984 1.225,-0.385 0.46666,-0.06998 0.92166,-0.104984 1.365,-0.105 0.48999,1.6e-5 0.96833,0.05835 1.435,0.175 0.48999,0.09335 0.92166,0.256682 1.295,0.49 0.39666,0.233348 0.72332,0.548348 0.98,0.945 0.27999,0.373347 0.44332,0.85168 0.49,1.435 l 2.975,0 c -0.07,-1.096653 -0.30335,-2.006652 -0.7,-2.73 -0.39668,-0.74665 -0.93335,-1.329983 -1.61,-1.75 -0.65334,-0.443316 -1.42334,-0.746649 -2.31,-0.91 -0.86334,-0.186648 -1.79667,-0.279981 -2.8,-0.28 -0.79334,1.9e-5 -1.59834,0.105018 -2.415,0.315 -0.79334,0.186685 -1.51667,0.490018 -2.17,0.91 -0.63,0.396684 -1.155,0.921683 -1.575,1.575 -0.39667,0.653348 -0.595,1.435014 -0.595,2.345 0,0.863346 0.16333,1.586678 0.49,2.17 0.35,0.583344 0.805,1.061677 1.365,1.435 0.56,0.373343 1.19,0.676676 1.89,0.91 0.7,0.233342 1.42333,0.431675 2.17,0.595 0.74666,0.163341 1.46999,0.326675 2.17,0.49 0.72332,0.140008 1.35332,0.326674 1.89,0.56 0.55999,0.23334 1.00332,0.536673 1.33,0.91 0.34999,0.350006 0.52499,0.816672 0.525,1.4 -1e-5,0.560004 -0.14001,1.026671 -0.42,1.4 -0.28001,0.350003 -0.64168,0.618336 -1.085,0.805 -0.42001,0.186669 -0.88668,0.315002 -1.4,0.385 -0.51334,0.07 -1.00334,0.105002 -1.47,0.105 -0.60667,2e-6 -1.20167,-0.05833 -1.785,-0.175 -0.56001,-0.116664 -1.07334,-0.303331 -1.54,-0.56 -0.44334,-0.279997 -0.805,-0.641663 -1.085,-1.085 -0.28,-0.443329 -0.43167,-1.003328 -0.455,-1.68 l -2.975,0"
         id="path4262-0"
         inkscape:connector-curvature="0" />
      <path
         d="m 263.63621,66.93625 -2.975,0 0,10.22 c -10e-6,0.816674 -0.11668,1.575006 -0.35,2.275 -0.21001,0.676672 -0.53668,1.271671 -0.98,1.785 -0.44334,0.513337 -1.00334,0.910003 -1.68,1.19 -0.65334,0.280002 -1.43501,0.420002 -2.345,0.42 -1.14334,2e-6 -2.04167,-0.326664 -2.695,-0.98 -0.65334,-0.653329 -0.98,-1.539995 -0.98,-2.66 l 0,-12.25 -2.975,0 0,11.9 c 0,0.980005 0.0933,1.878338 0.28,2.695 0.21,0.793336 0.56,1.481669 1.05,2.065 0.49,0.583334 1.13166,1.038334 1.925,1.365 0.79333,0.326666 1.78499,0.49 2.975,0.49 1.30666,0 2.44999,-0.268333 3.43,-0.805 1.00332,-0.536666 1.81999,-1.364998 2.45,-2.485 l 0.07,0 0,2.87 2.8,0 0,-18.095"
         id="path4264-4"
         inkscape:connector-curvature="0" />
      <path
         d="m 268.84863,76.70125 10.115,0 0,-2.8 -10.115,0 0,2.8"
         id="path4266-2"
         inkscape:connector-curvature="0" />
      <path
         d="m 296.63715,79.29125 c -0.25668,1.190005 -0.79335,2.07667 -1.61,2.66 -0.81668,0.583336 -1.84334,0.875002 -3.08,0.875 -0.98001,2e-6 -1.83167,-0.163331 -2.555,-0.49 -0.72334,-0.326664 -1.31834,-0.75833 -1.785,-1.295 -0.46667,-0.559995 -0.805,-1.189995 -1.015,-1.89 -0.21,-0.723327 -0.30334,-1.481659 -0.28,-2.275 l 13.545,0 c 0.0466,-1.096657 -0.0583,-2.251656 -0.315,-3.465 -0.23335,-1.213321 -0.67668,-2.333319 -1.33,-3.36 -0.63001,-1.026651 -1.48168,-1.86665 -2.555,-2.52 -1.05001,-0.676648 -2.38001,-1.014981 -3.99,-1.015 -1.23667,1.9e-5 -2.38001,0.233352 -3.43,0.7 -1.02667,0.466684 -1.925,1.120017 -2.695,1.96 -0.74667,0.840015 -1.33,1.843347 -1.75,3.01 -0.42,1.143345 -0.63,2.391677 -0.63,3.745 0.0467,1.376674 0.245,2.64834 0.595,3.815 0.37333,1.166671 0.92166,2.170003 1.645,3.01 0.72333,0.840001 1.61,1.505001 2.66,1.995 1.07333,0.466666 2.33333,0.7 3.78,0.7 2.05332,0 3.75665,-0.525 5.11,-1.575 1.35332,-1.049998 2.22832,-2.57833 2.625,-4.585 l -2.94,0 m -10.325,-5.04 c 0.0467,-0.699989 0.19833,-1.353321 0.455,-1.96 0.25666,-0.629987 0.60666,-1.178319 1.05,-1.645 0.44333,-0.466652 0.96833,-0.828318 1.575,-1.085 0.62999,-0.279984 1.32999,-0.419984 2.1,-0.42 0.72332,1.6e-5 1.39999,0.140016 2.03,0.42 0.62999,0.256682 1.16665,0.618348 1.61,1.085 0.46665,0.443347 0.82832,0.980013 1.085,1.61 0.27999,0.630012 0.44332,1.295011 0.49,1.995 l -10.395,0"
         id="path4268-1"
         inkscape:connector-curvature="0" />
      <path
         d="m 318.24598,75.82625 c -2e-5,0.886675 -0.0933,1.750007 -0.28,2.59 -0.18669,0.840006 -0.49002,1.586672 -0.91,2.24 -0.42002,0.653337 -0.98002,1.178337 -1.68,1.575 -0.70002,0.396669 -1.55168,0.595002 -2.555,0.595 -1.02668,2e-6 -1.90168,-0.186664 -2.625,-0.56 -0.72334,-0.396664 -1.31834,-0.909996 -1.785,-1.54 -0.44334,-0.629995 -0.77001,-1.353328 -0.98,-2.17 -0.21001,-0.839993 -0.31501,-1.703325 -0.315,-2.59 -10e-6,-0.83999 0.0933,-1.668323 0.28,-2.485 0.20999,-0.816654 0.53666,-1.539987 0.98,-2.17 0.44332,-0.653319 1.01499,-1.178318 1.715,-1.575 0.69999,-0.396651 1.55165,-0.594984 2.555,-0.595 0.95665,1.6e-5 1.78498,0.186682 2.485,0.56 0.72332,0.373348 1.30665,0.875014 1.75,1.505 0.46665,0.630013 0.80498,1.353346 1.015,2.17 0.23331,0.793344 0.34998,1.61001 0.35,2.45 m -14,16.135 2.975,0 0,-9.345 0.07,0 c 0.32666,0.536669 0.72332,0.991668 1.19,1.365 0.48999,0.350001 1.00332,0.641667 1.54,0.875 0.53665,0.21 1.07332,0.361666 1.61,0.455 0.53665,0.09333 1.03832,0.14 1.505,0.14 1.37665,0 2.57832,-0.245 3.605,-0.735 1.04998,-0.513333 1.91331,-1.189998 2.59,-2.03 0.69998,-0.86333 1.21331,-1.866662 1.54,-3.01 0.34998,-1.143327 0.52498,-2.356659 0.525,-3.64 -2e-5,-1.283323 -0.17502,-2.496655 -0.525,-3.64 -0.35002,-1.14332 -0.87502,-2.146652 -1.575,-3.01 -0.67669,-0.88665 -1.54002,-1.586649 -2.59,-2.1 -1.02668,-0.513315 -2.24002,-0.769981 -3.64,-0.77 -1.26001,1.9e-5 -2.41501,0.233352 -3.465,0.7 -1.05001,0.443351 -1.82001,1.166683 -2.31,2.17 l -0.07,0 0,-2.45 -2.975,0 0,25.025"
         id="path4270-5"
         inkscape:connector-curvature="0" />
      <path
         d="m 326.29722,85.03125 2.975,0 0,-24.99 -2.975,0 0,24.99"
         id="path4272-5"
         inkscape:connector-curvature="0" />
      <path
         d="m 335.7802,85.03125 3.885,0 0,-3.885 -3.885,0 0,3.885"
         id="path4274-2"
         inkscape:connector-curvature="0" />
      <path
         d="m 353.30223,82.61625 c -0.98001,2e-6 -1.79667,-0.198331 -2.45,-0.595 -0.65334,-0.419997 -1.17834,-0.956663 -1.575,-1.61 -0.39667,-0.676661 -0.67667,-1.423327 -0.84,-2.24 -0.16334,-0.816659 -0.245,-1.633325 -0.245,-2.45 0,-0.863323 0.0933,-1.691656 0.28,-2.485 0.21,-0.793321 0.525,-1.49332 0.945,-2.1 0.44333,-0.606652 1.00333,-1.084985 1.68,-1.435 0.67666,-0.373318 1.49333,-0.559984 2.45,-0.56 0.93332,1.6e-5 1.72666,0.186682 2.38,0.56 0.65332,0.373348 1.17832,0.875014 1.575,1.505 0.41999,0.60668 0.72332,1.295013 0.91,2.065 0.18665,0.770011 0.27999,1.551677 0.28,2.345 -10e-6,0.840009 -0.10501,1.680008 -0.315,2.52 -0.18668,0.840006 -0.49001,1.598339 -0.91,2.275 -0.42001,0.653337 -0.98001,1.190003 -1.68,1.61 -0.67668,0.396669 -1.50501,0.595002 -2.485,0.595 m 8.33,-15.68 -2.8,0 0,2.59 -0.07,0 c -0.53668,-1.003317 -1.28334,-1.749983 -2.24,-2.24 -0.93334,-0.513315 -1.97168,-0.769981 -3.115,-0.77 -1.56334,1.9e-5 -2.88167,0.303352 -3.955,0.91 -1.07334,0.58335 -1.93667,1.341683 -2.59,2.275 -0.65333,0.933348 -1.12,1.960013 -1.4,3.08 -0.28,1.120011 -0.42,2.216677 -0.42,3.29 0,1.236674 0.16333,2.415007 0.49,3.535 0.35,1.096671 0.86333,2.065003 1.54,2.905 0.67666,0.840002 1.51666,1.505001 2.52,1.995 1.00333,0.49 2.18166,0.735 3.535,0.735 0.55999,0 1.11999,-0.07 1.68,-0.21 0.58332,-0.14 1.11999,-0.338333 1.61,-0.595 0.51332,-0.279999 0.96832,-0.618332 1.365,-1.015 0.39665,-0.419998 0.72332,-0.909997 0.98,-1.47 l 0.07,0 0,1.19 c -10e-6,1.026668 -0.10501,1.96 -0.315,2.8 -0.18668,0.839998 -0.50168,1.551664 -0.945,2.135 -0.44334,0.606663 -1.00334,1.073329 -1.68,1.4 -0.67668,0.349995 -1.50501,0.524995 -2.485,0.525 -0.49001,-5e-6 -1.00334,-0.05834 -1.54,-0.175 -0.53667,-0.09334 -1.03834,-0.256671 -1.505,-0.49 -0.44334,-0.233337 -0.82834,-0.53667 -1.155,-0.91 -0.30334,-0.373336 -0.46667,-0.828336 -0.49,-1.365 l -2.975,0 c 0.0467,0.979997 0.30333,1.808329 0.77,2.485 0.46667,0.676661 1.05,1.224994 1.75,1.645 0.72333,0.419993 1.51666,0.723326 2.38,0.91 0.88666,0.186659 1.74999,0.279993 2.59,0.28 2.86999,-7e-6 4.98165,-0.746673 6.335,-2.24 1.37665,-1.470004 2.06498,-3.686668 2.065,-6.65 l 0,-16.555"
         id="path4276-6"
         inkscape:connector-curvature="0" />
      <path
         d="m 367.49489,85.03125 2.975,0 0,-18.095 -2.975,0 0,18.095 m 2.975,-24.99 -2.975,0 0,3.64 2.975,0 0,-3.64"
         id="path4278-4"
         inkscape:connector-curvature="0" />
      <path
         d="m 380.44285,61.51125 -2.975,0 0,5.425 -3.08,0 0,2.625 3.08,0 0,11.515 c 0,0.840003 0.0817,1.516669 0.245,2.03 0.16333,0.513335 0.40833,0.910001 0.735,1.19 0.35,0.28 0.79333,0.478334 1.33,0.595 0.55999,0.09333 1.22499,0.14 1.995,0.14 l 2.275,0 0,-2.625 -1.365,0 c -0.46667,3e-6 -0.85167,-0.01166 -1.155,-0.035 -0.28001,-0.04666 -0.50167,-0.128331 -0.665,-0.245 -0.16334,-0.116664 -0.28001,-0.279997 -0.35,-0.49 -0.0467,-0.209996 -0.07,-0.489996 -0.07,-0.84 l 0,-11.235 3.605,0 0,-2.625 -3.605,0 0,-5.425"
         id="path4280-2"
         inkscape:connector-curvature="0" />
      <path
         d="m 388.51871,85.03125 2.975,0 0,-10.22 c -1e-5,-0.816656 0.10499,-1.563322 0.315,-2.24 0.23333,-0.699987 0.57166,-1.306653 1.015,-1.82 0.44332,-0.513319 0.99166,-0.909985 1.645,-1.19 0.67666,-0.279984 1.46999,-0.419984 2.38,-0.42 1.14332,1.6e-5 2.04165,0.326682 2.695,0.98 0.65332,0.653348 0.97998,1.540013 0.98,2.66 l 0,12.25 2.975,0 0,-11.9 c -2e-5,-0.979987 -0.10502,-1.866653 -0.315,-2.66 -0.18669,-0.816651 -0.52502,-1.516651 -1.015,-2.1 -0.49002,-0.583316 -1.13168,-1.038316 -1.925,-1.365 -0.79335,-0.326648 -1.78501,-0.489981 -2.975,-0.49 -0.53668,1.9e-5 -1.09668,0.05835 -1.68,0.175 -0.56001,0.116685 -1.09668,0.303351 -1.61,0.56 -0.51334,0.233351 -0.99168,0.548351 -1.435,0.945 -0.42001,0.396683 -0.74667,0.863349 -0.98,1.4 l -0.07,0 0,-9.555 -2.975,0 0,24.99"
         id="path4282-4"
         inkscape:connector-curvature="0" />
      <path
         d="m 424.18113,66.93625 -2.975,0 0,10.22 c -2e-5,0.816674 -0.11668,1.575006 -0.35,2.275 -0.21002,0.676672 -0.53668,1.271671 -0.98,1.785 -0.44335,0.513337 -1.00335,0.910003 -1.68,1.19 -0.65335,0.280002 -1.43501,0.420002 -2.345,0.42 -1.14334,2e-6 -2.04168,-0.326664 -2.695,-0.98 -0.65334,-0.653329 -0.98001,-1.539995 -0.98,-2.66 l 0,-12.25 -2.975,0 0,11.9 c -10e-6,0.980005 0.0933,1.878338 0.28,2.695 0.20999,0.793336 0.55999,1.481669 1.05,2.065 0.48999,0.583334 1.13166,1.038334 1.925,1.365 0.79332,0.326666 1.78499,0.49 2.975,0.49 1.30665,0 2.44999,-0.268333 3.43,-0.805 1.00332,-0.536666 1.81998,-1.364998 2.45,-2.485 l 0.07,0 0,2.87 2.8,0 0,-18.095"
         id="path4284-6"
         inkscape:connector-curvature="0" />
      <path
         d="m 443.98856,75.82625 c -2e-5,0.886675 -0.0933,1.750007 -0.28,2.59 -0.18668,0.840006 -0.49002,1.586672 -0.91,2.24 -0.42001,0.653337 -0.98001,1.178337 -1.68,1.575 -0.70001,0.396669 -1.55168,0.595002 -2.555,0.595 -1.02668,2e-6 -1.90168,-0.186664 -2.625,-0.56 -0.72334,-0.396664 -1.31834,-0.909996 -1.785,-1.54 -0.44334,-0.629995 -0.77001,-1.353328 -0.98,-2.17 -0.21,-0.839993 -0.315,-1.703325 -0.315,-2.59 0,-0.83999 0.0933,-1.668323 0.28,-2.485 0.20999,-0.816654 0.53666,-1.539987 0.98,-2.17 0.44333,-0.653319 1.01499,-1.178318 1.715,-1.575 0.69999,-0.396651 1.55166,-0.594984 2.555,-0.595 0.95666,1.6e-5 1.78499,0.186682 2.485,0.56 0.72332,0.373348 1.30665,0.875014 1.75,1.505 0.46665,0.630013 0.80498,1.353346 1.015,2.17 0.23332,0.793344 0.34998,1.61001 0.35,2.45 m -14,9.205 2.975,0 0,-2.415 0.07,0 c 0.32666,0.536669 0.72333,0.991668 1.19,1.365 0.48999,0.350001 1.00333,0.641667 1.54,0.875 0.53666,0.21 1.07332,0.361666 1.61,0.455 0.53666,0.09333 1.03832,0.14 1.505,0.14 1.37665,0 2.57832,-0.245 3.605,-0.735 1.04998,-0.513333 1.91332,-1.189998 2.59,-2.03 0.69998,-0.86333 1.21332,-1.866662 1.54,-3.01 0.34998,-1.143327 0.52498,-2.356659 0.525,-3.64 -2e-5,-1.283323 -0.17502,-2.496655 -0.525,-3.64 -0.35002,-1.14332 -0.87502,-2.146652 -1.575,-3.01 -0.67668,-0.88665 -1.54002,-1.586649 -2.59,-2.1 -1.02668,-0.513315 -2.24001,-0.769981 -3.64,-0.77 -1.26001,1.9e-5 -2.41501,0.233352 -3.465,0.7 -1.05001,0.443351 -1.82001,1.166683 -2.31,2.17 l -0.07,0 0,-9.345 -2.975,0 0,24.99"
         id="path4286-8"
         inkscape:connector-curvature="0" />
      <path
         d="m 451.64114,85.03125 3.885,0 0,-3.885 -3.885,0 0,3.885"
         id="path4288-9"
         inkscape:connector-curvature="0" />
      <path
         d="m 462.05816,85.03125 2.975,0 0,-18.095 -2.975,0 0,18.095 m 2.975,-24.99 -2.975,0 0,3.64 2.975,0 0,-3.64"
         id="path4290-8"
         inkscape:connector-curvature="0" />
      <path
         d="m 469.89614,76.00125 c 0,1.330008 0.18667,2.566673 0.56,3.71 0.37334,1.143338 0.93334,2.14667 1.68,3.01 0.74667,0.840001 1.65667,1.505001 2.73,1.995 1.09666,0.49 2.36833,0.735 3.815,0.735 1.42333,0 2.68333,-0.245 3.78,-0.735 1.09666,-0.489999 2.01832,-1.154999 2.765,-1.995 0.74665,-0.86333 1.30665,-1.866662 1.68,-3.01 0.37332,-1.143327 0.55999,-2.379992 0.56,-3.71 -10e-6,-1.32999 -0.18668,-2.566655 -0.56,-3.71 -0.37335,-1.166653 -0.93335,-2.169985 -1.68,-3.01 -0.74668,-0.863317 -1.66834,-1.539983 -2.765,-2.03 -1.09667,-0.489982 -2.35667,-0.734981 -3.78,-0.735 -1.44667,1.9e-5 -2.71834,0.245018 -3.815,0.735 -1.07333,0.490017 -1.98333,1.166683 -2.73,2.03 -0.74666,0.840015 -1.30666,1.843347 -1.68,3.01 -0.37333,1.143345 -0.56,2.38001 -0.56,3.71 m 3.15,0 c 0,-1.096657 0.14,-2.064989 0.42,-2.905 0.30333,-0.863321 0.71167,-1.586653 1.225,-2.17 0.51333,-0.583319 1.10833,-1.026652 1.785,-1.33 0.7,-0.303318 1.435,-0.454984 2.205,-0.455 0.76999,1.6e-5 1.49333,0.151682 2.17,0.455 0.69999,0.303348 1.30666,0.746681 1.82,1.33 0.51332,0.583347 0.90999,1.306679 1.19,2.17 0.30332,0.840011 0.45499,1.808343 0.455,2.905 -1e-5,1.096675 -0.15168,2.076674 -0.455,2.94 -0.28001,0.840005 -0.67668,1.551671 -1.19,2.135 -0.51334,0.560003 -1.12001,0.99167 -1.82,1.295 -0.67667,0.303336 -1.40001,0.455002 -2.17,0.455 -0.77,2e-6 -1.505,-0.151664 -2.205,-0.455 -0.67667,-0.30333 -1.27167,-0.734997 -1.785,-1.295 -0.51333,-0.583329 -0.92167,-1.294995 -1.225,-2.135 -0.28,-0.863326 -0.42,-1.843325 -0.42,-2.94"
         id="path4292-0"
         inkscape:connector-curvature="0" />
    </g>
  </g>
  <g
     inkscape:label="newlayer"
     inkscape:groupmode="layer"
     id="g3037"
     transform="translate(0,-1240.1573)" />
  <g
     id="g3147"
     inkscape:groupmode="layer"
     inkscape:label="newlayer"
     transform="translate(0,-1240.1573)" />
  <g
     inkscape:label="newlayer"
     inkscape:groupmode="layer"
     id="g3304"
     transform="translate(0,-177.16533)" />
  <g
     id="g3498"
     inkscape:groupmode="layer"
     inkscape:label="newlayer"
     transform="translate(0,-177.16533)" />
</svg>
