<?xml version="1.0" encoding="UTF-8" standalone="no"?>
<!-- Created with Inkscape (http://www.inkscape.org/) -->

<svg
   xmlns:dc="http://purl.org/dc/elements/1.1/"
   xmlns:cc="http://creativecommons.org/ns#"
   xmlns:rdf="http://www.w3.org/1999/02/22-rdf-syntax-ns#"
   xmlns:svg="http://www.w3.org/2000/svg"
   xmlns="http://www.w3.org/2000/svg"
   xmlns:sodipodi="http://sodipodi.sourceforge.net/DTD/sodipodi-0.dtd"
   xmlns:inkscape="http://www.inkscape.org/namespaces/inkscape"
   width="248.03149"
   height="70.866142"
   id="svg2"
   version="1.1"
   inkscape:version="0.48.3.1 r9886"
   sodipodi:docname="58mm_focus_key.svg">
  <defs
     id="defs4" />
  <sodipodi:namedview
     id="base"
     pagecolor="#ffffff"
     bordercolor="#666666"
     borderopacity="1.0"
     inkscape:pageopacity="0.0"
     inkscape:pageshadow="2"
     inkscape:zoom="1"
     inkscape:cx="124.01575"
     inkscape:cy="35.433071"
     inkscape:document-units="mm"
     inkscape:current-layer="layer1"
     showgrid="true"
     borderlayer="true"
     inkscape:showpageshadow="false"
     units="mm"
     inkscape:window-width="1280"
     inkscape:window-height="749"
     inkscape:window-x="0"
     inkscape:window-y="27"
     inkscape:window-maximized="1">
    <inkscape:grid
       type="xygrid"
       id="grid2985"
       empspacing="10"
       visible="true"
       enabled="true"
       snapvisiblegridlinesonly="true"
       units="mm"
       spacingx="1mm"
       spacingy="1mm"
       color="#ff00ff"
       opacity="0.0627451"
       empcolor="#ff00ff"
       empopacity="0.15686275" />
  </sodipodi:namedview>
  <metadata
     id="metadata7">
    <rdf:RDF>
      <cc:Work
         rdf:about="">
        <dc:format>image/svg+xml</dc:format>
        <dc:type
           rdf:resource="http://purl.org/dc/dcmitype/StillImage" />
        <dc:title></dc:title>
      </cc:Work>
    </rdf:RDF>
  </metadata>
  <g
     inkscape:label="Layer 1"
     inkscape:groupmode="layer"
     id="layer1"
     transform="translate(0,-981.49598)">
    <path
       style="fill:none;stroke:#ff3333;stroke-width:1.41732287;stroke-linecap:round;stroke-linejoin:round;stroke-miterlimit:4;stroke-opacity:1;stroke-dasharray:none;stroke-dashoffset:0"
       d="m 7.0866163,993.89755 31.8897637,0 0,21.25985 124.01575,0 0,-26.57481 83.26772,0 -62.00788,53.14961 -177.165354,0 z"
       id="path2983"
       inkscape:connector-curvature="0"
       sodipodi:nodetypes="ccccccccc" />
    <g
       style="font-size:16px;font-style:normal;font-variant:normal;font-weight:normal;font-stretch:normal;text-align:start;line-height:125%;letter-spacing:0px;word-spacing:0px;writing-mode:lr-tb;text-anchor:start;fill:#000000;fill-opacity:1;stroke:none;font-family:Helvetica CE;-inkscape-font-specification:Helvetica CE"
       id="text3753">
      <path
         d="m 57.622601,1029.6691 0.929687,-6 5.742188,0 0,1.3437 -4.765625,0 -0.484375,3.086 c 0.317705,-0.2292 0.64583,-0.4037 0.984375,-0.5235 0.343746,-0.1198 0.726558,-0.1797 1.148437,-0.1797 0.916661,0 1.71614,0.2578 2.398438,0.7735 0.895825,0.6771 1.343741,1.6224 1.34375,2.8359 -9e-6,0.6927 -0.158863,1.3438 -0.476563,1.9531 -0.312507,0.6094 -0.768236,1.086 -1.367187,1.4297 -0.598965,0.3438 -1.31511,0.5156 -2.148438,0.5156 -0.79167,0 -1.466149,-0.1484 -2.023437,-0.4453 -0.552085,-0.2968 -0.97396,-0.7083 -1.265625,-1.2343 -0.208335,-0.3803 -0.341147,-0.8568 -0.398438,-1.4297 l 1.4375,0 c 0.05729,0.5729 0.281248,1.026 0.671875,1.3593 0.390622,0.3334 0.924476,0.5 1.601563,0.5 0.723953,0 1.30989,-0.2317 1.757812,-0.6953 0.44791,-0.4635 0.671868,-1.0807 0.671875,-1.8515 -7e-6,-0.7396 -0.221361,-1.3334 -0.664062,-1.7813 -0.442714,-0.4531 -1.023443,-0.6797 -1.742188,-0.6797 -0.901045,0 -1.611982,0.362 -2.132812,1.086 l -1.21875,-0.062"
         style=""
         id="path3779" />
      <path
         d="m 72.044476,1028.6613 c 0.406243,0.1927 0.713534,0.3802 0.921875,0.5625 0.270825,0.2343 0.489575,0.5312 0.65625,0.8906 0.166658,0.3594 0.249991,0.7995 0.25,1.3203 -9e-6,1.0208 -0.341154,1.8542 -1.023438,2.5 -0.67709,0.6458 -1.611985,0.9687 -2.804687,0.9687 -1.182295,0 -2.114586,-0.3229 -2.796875,-0.9687 -0.682293,-0.6458 -1.023439,-1.4635 -1.023438,-2.4531 -10e-7,-0.7292 0.166666,-1.3151 0.5,-1.7578 0.33854,-0.4427 0.80729,-0.7917 1.40625,-1.0469 -0.44271,-0.1823 -0.781252,-0.4141 -1.015625,-0.6953 -0.338543,-0.4063 -0.507813,-0.9141 -0.507812,-1.5235 -10e-7,-0.8802 0.304686,-1.6067 0.914062,-2.1797 0.614581,-0.5781 1.455726,-0.8671 2.523438,-0.8671 0.697911,0 1.30989,0.1302 1.835937,0.3906 0.526035,0.2552 0.924472,0.625 1.195313,1.1094 0.276033,0.4843 0.414054,0.9869 0.414062,1.5078 -8e-6,0.5 -0.125008,0.9427 -0.375,1.3281 -0.250007,0.3802 -0.606778,0.6849 -1.070312,0.9141 m -4,-2.2813 c -3e-6,0.5365 0.174476,0.9714 0.523437,1.3047 0.348955,0.3333 0.830725,0.5 1.445313,0.5 0.614578,0 1.106765,-0.1745 1.476562,-0.5234 0.374994,-0.349 0.562494,-0.7761 0.5625,-1.2813 -6e-6,-0.5 -0.17709,-0.9114 -0.53125,-1.2344 -0.348964,-0.3229 -0.856776,-0.4843 -1.523437,-0.4843 -0.635421,0 -1.119795,0.1562 -1.453125,0.4687 -0.333336,0.3073 -0.500003,0.724 -0.5,1.25 m -0.28125,5.1563 c -3e-6,0.6302 0.200518,1.1406 0.601562,1.5312 0.406247,0.3906 0.966142,0.5859 1.679688,0.5859 0.718744,0 1.27864,-0.1953 1.679687,-0.5859 0.406244,-0.3906 0.609368,-0.901 0.609375,-1.5312 -7e-6,-0.6198 -0.203131,-1.125 -0.609375,-1.5157 -0.406256,-0.3958 -0.966151,-0.5937 -1.679687,-0.5937 -0.708338,0 -1.265629,0.1953 -1.671875,0.5859 -0.406253,0.3906 -0.609378,0.8985 -0.609375,1.5235"
         style=""
         id="path3781" />
      <path
         d="m 79.974163,1026.2784 1.421875,0 0,1.1563 c 0.229164,-0.3177 0.429685,-0.5547 0.601563,-0.7109 0.244788,-0.2188 0.518225,-0.3907 0.820312,-0.5157 0.307288,-0.125 0.638016,-0.1875 0.992188,-0.1875 0.343744,0 0.669265,0.06 0.976562,0.1797 0.312494,0.1146 0.565098,0.2657 0.757813,0.4531 0.192701,0.1876 0.372388,0.448 0.539062,0.7813 0.374993,-0.5104 0.752596,-0.8724 1.132813,-1.0859 0.380199,-0.2188 0.828115,-0.3282 1.34375,-0.3282 0.489573,0 0.921864,0.091 1.296875,0.2735 0.380197,0.1823 0.669259,0.401 0.867187,0.6562 0.203113,0.25 0.33853,0.5235 0.40625,0.8203 0.0677,0.2969 0.10155,0.7318 0.101563,1.3047 l 0,5.5703 -1.460938,0 0,-5.8672 c -1.1e-5,-0.4791 -0.130219,-0.8489 -0.390625,-1.1093 -0.255218,-0.2604 -0.609385,-0.3907 -1.0625,-0.3907 -0.567717,0 -1.046883,0.2084 -1.4375,0.625 -0.385424,0.4115 -0.578132,0.9896 -0.578125,1.7344 l 0,5.0078 -1.421875,0 0,-5.7968 c -6e-6,-0.5469 -0.117193,-0.9454 -0.351562,-1.1954 -0.229172,-0.25 -0.559901,-0.375 -0.992188,-0.375 -0.593754,0 -1.098962,0.237 -1.515625,0.711 -0.416669,0.4739 -0.625002,1.0495 -0.625,1.7265 l 0,4.9297 -1.421875,0 0,-8.3672"
         style=""
         id="path3783" />
      <path
         d="m 93.317913,1026.2784 1.421875,0 0,1.1563 c 0.229164,-0.3177 0.429685,-0.5547 0.601563,-0.7109 0.244788,-0.2188 0.518225,-0.3907 0.820312,-0.5157 0.307288,-0.125 0.638016,-0.1875 0.992188,-0.1875 0.343744,0 0.669265,0.06 0.976562,0.1797 0.312494,0.1146 0.565098,0.2657 0.757813,0.4531 0.192701,0.1876 0.372388,0.448 0.539062,0.7813 0.374993,-0.5104 0.752592,-0.8724 1.132812,-1.0859 0.3802,-0.2188 0.82812,-0.3282 1.34375,-0.3282 0.48957,0 0.92187,0.091 1.29688,0.2735 0.38019,0.1823 0.66925,0.401 0.86718,0.6562 0.20312,0.25 0.33853,0.5235 0.40625,0.8203 0.0677,0.2969 0.10155,0.7318 0.10157,1.3047 l 0,5.5703 -1.46094,0 0,-5.8672 c -1e-5,-0.4791 -0.13022,-0.8489 -0.39063,-1.1093 -0.25522,-0.2604 -0.60938,-0.3907 -1.0625,-0.3907 -0.56771,0 -1.04688,0.2084 -1.4375,0.625 -0.385421,0.4115 -0.578129,0.9896 -0.578122,1.7344 l 0,5.0078 -1.421875,0 0,-5.7968 c -6e-6,-0.5469 -0.117193,-0.9454 -0.351562,-1.1954 -0.229172,-0.25 -0.559901,-0.375 -0.992188,-0.375 -0.593754,0 -1.098962,0.237 -1.515625,0.711 -0.416669,0.4739 -0.625002,1.0495 -0.625,1.7265 l 0,4.9297 -1.421875,0 0,-8.3672"
         style=""
         id="path3785" />
      <path
         d="m 115.8726,1034.6456 0,-11.4843 7.96094,0 0,1.3437 -6.42188,0 0,3.5703 5.64844,0 0,1.3516 -5.64844,0 0,5.2187 -1.53906,0"
         style=""
         id="path3787" />
      <path
         d="m 131.2476,1030.4581 c -1e-5,0.6146 -0.0781,1.1979 -0.23437,1.75 -0.1198,0.4167 -0.28907,0.7891 -0.50782,1.1172 -0.21355,0.3229 -0.47657,0.6042 -0.78906,0.8438 -0.3073,0.2396 -0.66407,0.4218 -1.07031,0.5468 -0.40626,0.125 -0.83334,0.1875 -1.28125,0.1875 -0.77605,0 -1.45573,-0.1692 -2.03906,-0.5078 -0.58334,-0.3437 -1.03907,-0.8515 -1.36719,-1.5234 -0.32292,-0.6771 -0.48438,-1.4818 -0.48438,-2.4141 0,-1.3333 0.33594,-2.4062 1.00782,-3.2187 0.67708,-0.8125 1.63801,-1.2188 2.88281,-1.2188 0.78124,0 1.47395,0.1797 2.07812,0.5391 0.60416,0.3594 1.05468,0.8828 1.35157,1.5703 0.30207,0.6823 0.45311,1.4583 0.45312,2.3281 m -1.4375,0 c -1e-5,-1.0573 -0.23178,-1.8515 -0.69531,-2.3828 -0.46355,-0.5312 -1.04688,-0.7969 -1.75,-0.7969 -0.70834,0 -1.29428,0.2683 -1.75781,0.8047 -0.45834,0.5313 -0.68751,1.323 -0.6875,2.375 -10e-6,1.0573 0.22916,1.8542 0.6875,2.3907 0.46353,0.5312 1.04947,0.7968 1.75781,0.7968 0.70312,0 1.28645,-0.2656 1.75,-0.7968 0.46353,-0.5365 0.6953,-1.3334 0.69531,-2.3907"
         style=""
         id="path3789" />
      <path
         d="m 139.45073,1031.7159 c -0.12501,1.0157 -0.49741,1.8021 -1.11719,2.3594 -0.6198,0.5521 -1.42188,0.8281 -2.40625,0.8281 -0.58334,0 -1.08594,-0.096 -1.50781,-0.289 -0.41667,-0.1927 -0.76303,-0.4531 -1.03907,-0.7813 -0.27083,-0.3281 -0.48177,-0.6849 -0.63281,-1.0703 -0.24479,-0.6406 -0.36719,-1.3594 -0.36719,-2.1562 0,-0.8282 0.13802,-1.5912 0.41407,-2.2891 0.27604,-0.7031 0.70312,-1.2604 1.28125,-1.6719 0.58333,-0.4166 1.28124,-0.625 2.09375,-0.625 0.9427,0 1.70311,0.2683 2.28125,0.8047 0.57811,0.5365 0.91145,1.3021 1,2.2969 l -1.34375,0 c -0.0833,-0.5729 -0.28126,-1.0234 -0.59375,-1.3516 -0.3073,-0.3281 -0.75261,-0.4922 -1.33594,-0.4922 -0.6823,0 -1.2448,0.2709 -1.6875,0.8125 -0.44271,0.5365 -0.66407,1.3959 -0.66406,2.5782 -1e-5,0.875 0.15364,1.5573 0.46093,2.0468 0.39063,0.6198 0.96094,0.9297 1.71094,0.9297 0.54166,0 0.99739,-0.1614 1.36719,-0.4843 0.37499,-0.323 0.62239,-0.8047 0.74219,-1.4454 l 1.34375,0"
         style=""
         id="path3791" />
      <path
         d="m 140.89604,1026.2784 1.42187,0 0,5.5547 c 0,0.474 0.0521,0.8282 0.15625,1.0625 0.10417,0.2396 0.27604,0.4245 0.51563,0.5547 0.24479,0.1302 0.55208,0.1953 0.92187,0.1953 0.34375,0 0.65364,-0.049 0.92969,-0.1484 0.28125,-0.1042 0.51041,-0.2422 0.6875,-0.4141 0.12499,-0.125 0.24479,-0.2968 0.35938,-0.5156 0.11457,-0.224 0.20051,-0.4479 0.25781,-0.6719 0.0573,-0.2239 0.0859,-0.5599 0.0859,-1.0078 l 0,-4.6094 1.41406,0 0,8.3672 -1.33594,0 0,-1.2343 c -0.28646,0.4895 -0.61198,0.8437 -0.97656,1.0625 -0.48959,0.2864 -1.09636,0.4296 -1.82031,0.4296 -0.67188,0 -1.20313,-0.125 -1.59375,-0.375 -0.39063,-0.25 -0.65886,-0.5572 -0.80469,-0.9218 -0.14584,-0.3698 -0.21875,-0.9141 -0.21875,-1.6328 l 0,-5.6954"
         style=""
         id="path3793" />
      <path
         d="m 150.63041,1032.005 c 0.026,0.3594 0.10938,0.6615 0.25,0.9063 0.14063,0.2447 0.36979,0.4453 0.6875,0.6015 0.32292,0.1563 0.74219,0.2344 1.25782,0.2344 0.67187,0 1.17187,-0.1328 1.5,-0.3984 0.33332,-0.2657 0.49999,-0.5808 0.5,-0.9454 -1e-5,-0.2968 -0.12501,-0.539 -0.375,-0.7265 -0.25001,-0.1875 -0.65626,-0.349 -1.21875,-0.4844 l -1.25782,-0.3047 c -0.93229,-0.2239 -1.56771,-0.5208 -1.90625,-0.8906 -0.33854,-0.3698 -0.50781,-0.8359 -0.50781,-1.3984 0,-0.448 0.1224,-0.8776 0.36719,-1.2891 0.24479,-0.4115 0.60677,-0.7292 1.08594,-0.9531 0.48437,-0.224 1.04687,-0.336 1.6875,-0.336 1.0052,0 1.78384,0.2448 2.33593,0.7344 0.55729,0.4844 0.84895,1.1146 0.875,1.8906 l -1.34375,0 c -0.0521,-0.4791 -0.23438,-0.8437 -0.54687,-1.0937 -0.3073,-0.25 -0.77344,-0.375 -1.39844,-0.375 -0.58334,0 -1.01563,0.1198 -1.29687,0.3594 -0.28126,0.2343 -0.42188,0.5182 -0.42188,0.8515 0,0.2656 0.0807,0.4818 0.24219,0.6485 0.23958,0.2343 0.63802,0.4166 1.19531,0.5468 l 1.61719,0.3907 c 0.85416,0.2031 1.43489,0.4791 1.74219,0.8281 0.31249,0.3437 0.46874,0.7812 0.46875,1.3125 -1e-5,0.7291 -0.27605,1.3776 -0.82813,1.9453 -0.54688,0.5625 -1.40365,0.8437 -2.57031,0.8437 -0.78646,0 -1.44532,-0.1276 -1.97656,-0.3828 -0.53126,-0.2604 -0.92448,-0.6354 -1.17969,-1.125 -0.1875,-0.3593 -0.29688,-0.8229 -0.32813,-1.3906 l 1.34375,0"
         style=""
         id="path3795" />
    </g>
  </g>
</svg>
