<?xml version="1.0" encoding="UTF-8" standalone="no"?>
<!-- Created with Inkscape (http://www.inkscape.org/) -->

<svg
   xmlns:dc="http://purl.org/dc/elements/1.1/"
   xmlns:cc="http://creativecommons.org/ns#"
   xmlns:rdf="http://www.w3.org/1999/02/22-rdf-syntax-ns#"
   xmlns:svg="http://www.w3.org/2000/svg"
   xmlns="http://www.w3.org/2000/svg"
   xmlns:sodipodi="http://sodipodi.sourceforge.net/DTD/sodipodi-0.dtd"
   xmlns:inkscape="http://www.inkscape.org/namespaces/inkscape"
   sodipodi:docname="wire_rack.svg"
   inkscape:version="0.48.5 r10040"
   version="1.1"
   id="svg2"
   height="1080"
   width="1800">
  <sodipodi:namedview
     id="base"
     pagecolor="#ffffff"
     bordercolor="#666666"
     borderopacity="1.0"
     inkscape:pageopacity="0.0"
     inkscape:pageshadow="2"
     inkscape:zoom="0.42444444"
     inkscape:cx="900"
     inkscape:cy="540"
     inkscape:document-units="in"
     inkscape:current-layer="svg2"
     showgrid="true"
     units="in"
     borderlayer="true"
     inkscape:showpageshadow="false"
     guidecolor="#ff00d2"
     guideopacity="0.31372549"
     inkscape:window-width="1280"
     inkscape:window-height="753"
     inkscape:window-x="0"
     inkscape:window-y="20"
     inkscape:window-maximized="1">
    <inkscape:grid
       empopacity="0.1254902"
       empcolor="#f000ff"
       opacity="0.0627451"
       color="#f000ff"
       spacingy="0.25in"
       spacingx="0.25in"
       units="in"
       snapvisiblegridlinesonly="true"
       enabled="true"
       visible="true"
       empspacing="4"
       id="grid2985"
       type="xygrid" />
    <sodipodi:guide
       id="guide2992"
       orientation="1035,0"
       position="202.5,1057.5" />
    <sodipodi:guide
       id="guide2994"
       orientation="0,1395"
       position="202.5,22.500009" />
    <sodipodi:guide
       id="guide2996"
       orientation="-1035,0"
       position="1597.5,22.500009" />
    <sodipodi:guide
       id="guide2998"
       orientation="0,-1395"
       position="1597.5,1057.5" />
    <inkscape:grid
       type="xygrid"
       id="grid4034"
       empspacing="5"
       visible="true"
       enabled="false"
       snapvisiblegridlinesonly="true"
       units="in"
       spacingx="0.0625in"
       spacingy="0.0625in"
       dotted="true" />
  </sodipodi:namedview>
  <defs
     id="defs4" />
  <metadata
     id="metadata7">
    <rdf:RDF>
      <cc:Work
         rdf:about="">
        <dc:format>image/svg+xml</dc:format>
        <dc:type
           rdf:resource="http://purl.org/dc/dcmitype/StillImage" />
      </cc:Work>
    </rdf:RDF>
  </metadata>
  <g
     transform="translate(0,27.64025)"
     id="layer1"
     inkscape:groupmode="layer"
     inkscape:label="Layer 1" />
  <g
     id="g3128"
     inkscape:groupmode="layer"
     inkscape:label="newlayer" />
  <g
     id="g4477"
     style="fill:none;stroke:#ff0000;stroke-opacity:1;stroke-width:1.06299213000000004;stroke-miterlimit:4;stroke-dasharray:none;stroke-linejoin:round;stroke-linecap:round">
    <g
       transform="matrix(1,0,0,-1,201.65862,630)"
       id="g4025"
       style="fill:none;stroke:#ff0000;stroke-opacity:1;stroke-width:1.06299213000000004;stroke-miterlimit:4;stroke-dasharray:none;stroke-linejoin:round;stroke-linecap:round">
      <g
         id="g3211"
         transform="translate(-675.95862,21.6)"
         style="fill:none;stroke:#ff0000;stroke-opacity:1;stroke-width:1.06299213000000004;stroke-miterlimit:4;stroke-dasharray:none;stroke-linejoin:round;stroke-linecap:round">
        <path
           d="m 2073.6,563.4 -95.94,0 0,23.4 -89.82,0 0,-23.4 -96.03,0 0,23.4 -89.82,0 0,-23.4 -96.03,0 0,23.4 -89.82,0 0,-23.4 -96.03,0 0,23.4 -89.82,0 0,-23.4 -96.03,0 0,23.4 -89.82,0 0,-23.4 -96.03,0 0,23.4 -89.82,0 0,-23.4 -96.03,0 0,23.4 -89.82,0 0,-23.4 -95.94,0"
           style="fill:none;stroke:#ff0000;stroke-opacity:1;stroke-width:1.06299213000000004;stroke-miterlimit:4;stroke-dasharray:none;stroke-linejoin:round;stroke-linecap:round"
           inkscape:label="part"
           id="path3174"
           inkscape:connector-curvature="0" />
        <path
           d="m 676.8,563.4 0,-90.76214 C 676.8,428.4 699.3,428.4 743.45862,428.4 l 1262.13738,0 c 68.004,0 68.004,22.5 68.004,45 l 0,90"
           style="fill:none;stroke:#ff0000;stroke-opacity:1;stroke-width:1.06299213000000004;stroke-miterlimit:4;stroke-dasharray:none;stroke-linejoin:round;stroke-linecap:round"
           inkscape:label="part"
           id="path3176"
           inkscape:connector-curvature="0"
           sodipodi:nodetypes="cccccc" />
      </g>
      <path
         style="fill:none;fill-opacity:0.78440365999999984;stroke:#ff0000;stroke-opacity:1;stroke-width:1.06299213000000004;stroke-miterlimit:4;stroke-dasharray:none;stroke-linejoin:round;stroke-linecap:round"
         d="m 95.34138,490.5 c 0,2.48528 -2.01472,4.5 -4.5,4.5 -2.48528,0 -4.5,-2.01472 -4.5,-4.5 0,-2.48528 2.01472,-4.5 4.5,-4.5 2.48528,0 4.5,2.01472 4.5,4.5 z"
         id="path3223"
         inkscape:connector-curvature="0" />
      <path
         style="fill:none;fill-opacity:0.78440365999999984;stroke:#ff0000;stroke-opacity:1;stroke-width:1.06299213000000004;stroke-miterlimit:4;stroke-dasharray:none;stroke-linejoin:round;stroke-linecap:round"
         d="m 500.34138,490.5 c 0,2.48528 -2.01472,4.5 -4.5,4.5 -2.48528,0 -4.5,-2.01472 -4.5,-4.5 0,-2.48528 2.01472,-4.5 4.5,-4.5 2.48528,0 4.5,2.01472 4.5,4.5 z"
         id="path3223-0"
         inkscape:connector-curvature="0" />
      <path
         sodipodi:type="arc"
         style="fill:none;fill-opacity:0.78440365999999984;stroke:#ff0000;stroke-opacity:1;stroke-width:2.65748031999999990;stroke-miterlimit:4;stroke-dasharray:none;stroke-linejoin:round;stroke-linecap:round"
         id="path3223-3"
         sodipodi:cx="123.75"
         sodipodi:cy="416.25"
         sodipodi:rx="11.25"
         sodipodi:ry="11.25"
         d="m 135,416.25 a 11.25,11.25 0 1 1 -22.5,0 11.25,11.25 0 1 1 22.5,0 z"
         transform="matrix(0.4,0,0,0.4,918.84138,324)" />
      <path
         sodipodi:type="arc"
         style="fill:none;fill-opacity:0.78440365999999984;stroke:#ff0000;stroke-opacity:1;stroke-width:2.65748031999999990;stroke-miterlimit:4;stroke-dasharray:none;stroke-linejoin:round;stroke-linecap:round"
         id="path3223-36"
         sodipodi:cx="123.75"
         sodipodi:cy="416.25"
         sodipodi:rx="11.25"
         sodipodi:ry="11.25"
         d="m 135,416.25 a 11.25,11.25 0 1 1 -22.5,0 11.25,11.25 0 1 1 22.5,0 z"
         transform="matrix(0.4,0,0,0.4,1256.3414,324)" />
    </g>
    <g
       transform="translate(0,-360)"
       style="fill:none;stroke:#ff0000;stroke-width:1.06299213000000004;stroke-linecap:round;stroke-linejoin:round;stroke-miterlimit:4;stroke-opacity:1;stroke-dasharray:none"
       id="g4472">
      <g
         style="fill:none;stroke:#ff0000;stroke-width:1.06299213000000004;stroke-linecap:round;stroke-linejoin:round;stroke-miterlimit:4;stroke-opacity:1;stroke-dasharray:none"
         id="g3217"
         transform="translate(-474.3,-136.8)">
        <path
           sodipodi:nodetypes="cccccccccccccccccccccccccccccc"
           d="m 676.8,676.8 95.76,0 0,23.4 90.18,0 0,-23.4 m 95.67,0 0,23.4 90.18,0 0,-23.4 m 95.67,0 0,23.4 90.18,0 0,-23.4 m 95.67,0 0,23.4 90.18,0 0,-23.4 m 95.67,0 0,23.4 90.18,0 0,-23.4 m 95.67,0 0,23.4 90.18,0 0,-23.4 m 95.67,0 0,23.4 90.18,0 0,-23.4 95.76,0"
           style="fill:none;stroke:#ff0000;stroke-width:1.06299213000000004;stroke-linecap:round;stroke-linejoin:round;stroke-miterlimit:4;stroke-opacity:1;stroke-dasharray:none"
           inkscape:label="part"
           id="path3146"
           inkscape:connector-curvature="0" />
      </g>
      <path
         sodipodi:nodetypes="ccccccccsccccccsccccccsccccccsccccccsccccccsccccccsccccccsccccccsccccccsccccccsccccccsccccccsccccccsccccccsccccccsccccccsccccccsccccccsccccccsccccccsccccccsccccccsccccccsccccccsccccccsccccccsccccccsccccccsccccccscccccccc"
         inkscape:connector-curvature="0"
         id="path4036-3-4"
         d="m 202.5,540 0,45.94136 0.59662,15.93364 8.74546,78.70918 c 2.50454,16.91582 2.50454,22.54082 8.12954,22.54082 l 11.25,0 c 5.625,0 5.625,-5.625 8.11346,-22.39611 l 4.79304,-74.88539 c 0,-2.19174 1.77676,-3.9685 3.9685,-3.9685 2.19174,0 3.9685,1.77676 3.9685,3.9685 l 4.77696,74.74068 c 2.50454,16.91582 2.50454,22.54082 8.12954,22.54082 l 11.25,0 c 5.625,0 5.625,-5.625 8.11346,-22.39611 l 4.79304,-74.88539 c 0,-2.19174 1.77676,-3.9685 3.9685,-3.9685 2.19174,0 3.9685,1.77676 3.9685,3.9685 l 4.77696,74.74068 c 2.50454,16.91582 2.50454,22.54082 8.12954,22.54082 l 11.25,0 c 5.625,0 5.625,-5.625 8.11346,-22.39611 l 4.79304,-74.88539 c 0,-2.19174 1.77676,-3.9685 3.9685,-3.9685 2.19174,0 3.9685,1.77676 3.9685,3.9685 l 4.77696,74.74068 c 2.50454,16.91582 2.50454,22.54082 8.12954,22.54082 l 11.25,0 c 5.625,0 5.625,-5.625 8.11346,-22.39611 l 4.79304,-74.88538 c 0,-2.19175 1.77676,-3.96851 3.9685,-3.96851 2.19175,0 3.96851,1.77676 3.96851,3.96851 l 4.77695,74.74067 c 2.50454,16.91582 2.50454,22.54082 8.12954,22.54082 l 11.25001,0 c 5.62498,0 5.62498,-5.625 8.11345,-22.39612 l 4.79304,-74.88537 c 0,-2.19175 1.77676,-3.96851 3.9685,-3.96851 2.19174,0 3.9685,1.77676 3.9685,3.96851 l 4.77695,74.74067 c 2.50454,16.91582 2.50454,22.54082 8.12955,22.54082 l 11.25,0 c 5.62501,0 5.62501,-5.625 8.11346,-22.39612 l 4.79303,-74.88537 c 0,-2.19175 1.77677,-3.96851 3.96851,-3.96851 2.19174,0 3.9685,1.77676 3.9685,3.96851 l 4.77697,74.74067 c 2.50454,16.91582 2.50454,22.54082 8.12952,22.54082 l 11.25001,0 c 5.625,0 5.625,-5.625 8.11346,-22.39612 l 4.79305,-74.88537 c 0,-2.19175 1.77674,-3.96851 3.96849,-3.96851 2.19174,0 3.9685,1.77676 3.9685,3.96851 l 4.77696,74.74067 c 2.50454,16.91582 2.50454,22.54082 8.12955,22.54082 l 11.24999,0 c 5.625,0 5.625,-5.625 8.11345,-22.39612 l 4.79305,-74.88537 c 0,-2.19174 1.77676,-3.96851 3.9685,-3.96851 2.19175,0 3.96851,1.77677 3.96851,3.96851 l 4.77695,74.74068 c 2.50454,16.91581 2.50454,22.54082 8.12954,22.54082 l 11.25001,0 c 5.62499,0 5.62499,-5.62501 8.11345,-22.39612 l 4.79304,-74.8854 c 0,-2.19172 1.77676,-3.96849 3.9685,-3.96849 2.19175,0 3.96851,1.77677 3.96851,3.96849 l 4.77695,74.7407 c 2.50453,16.91581 2.50453,22.54082 8.12954,22.54082 l 11.25,0 c 5.62499,0 5.62499,-5.62501 8.11346,-22.39612 l 4.79304,-74.8854 c 0,-2.19172 1.77676,-3.96849 3.9685,-3.96849 2.19174,0 3.9685,1.77677 3.9685,3.96849 l 4.77695,74.7407 c 2.50456,16.91581 2.50456,22.54082 8.12955,22.54082 l 11.25,0 c 5.62501,0 5.62501,-5.62501 8.11346,-22.39612 l 4.79303,-74.8854 c 0,-2.19172 1.77676,-3.96849 3.96851,-3.96849 2.19174,0 3.9685,1.77677 3.9685,3.96849 l 4.77697,74.7407 c 2.50453,16.91581 2.50453,22.54082 8.12952,22.54082 l 11.25001,0 c 5.625,0 5.625,-5.62501 8.11346,-22.39612 l 4.79305,-74.88538 c 0,-2.19174 1.77676,-3.96851 3.96849,-3.96851 2.19175,0 3.96851,1.77677 3.96851,3.96851 l 4.77695,74.74068 c 2.50454,16.91581 2.50454,22.54082 8.12955,22.54082 l 11.25,0 c 5.62498,0 5.62498,-5.62501 8.11344,-22.39614 l 4.79305,-74.88536 c 0,-2.19174 1.77676,-3.96851 3.96849,-3.96851 2.19175,0 3.96851,1.77677 3.96851,3.96851 l 4.77695,74.74068 c 2.50454,16.91581 2.50454,22.54082 8.12955,22.54082 l 11.25,0 c 5.62501,0 5.62501,-5.62501 8.11347,-22.39614 l 4.79302,-74.88536 c 0,-2.19174 1.77677,-3.96851 3.96852,-3.96851 2.19172,0 3.96848,1.77677 3.96848,3.96851 l 4.77698,74.74068 c 2.50454,16.91581 2.50454,22.54082 8.12952,22.54082 l 11.25,0 c 5.62501,0 5.62501,-5.62501 8.11347,-22.39614 l 4.79305,-74.88536 c 0,-2.19174 1.77674,-3.96851 3.96849,-3.96851 2.19175,0 3.96851,1.77677 3.96851,3.96851 l 4.77695,74.74068 c 2.50454,16.91581 2.50454,22.54082 8.12955,22.54082 l 11.25,0 c 5.62498,0 5.62498,-5.62501 8.11344,-22.39614 l 4.79305,-74.88537 c 0,-2.19174 1.77676,-3.9685 3.9685,-3.9685 2.19174,0 3.9685,1.77676 3.9685,3.9685 l 4.77696,74.74068 c 2.50454,16.91582 2.50454,22.54082 8.12954,22.54082 l 11.25,0 c 5.625,0 5.625,-5.625 8.11346,-22.39611 l 4.79304,-74.88539 c 0,-2.19174 1.77676,-3.9685 3.9685,-3.9685 2.19174,0 3.9685,1.77676 3.9685,3.9685 l 4.777,74.74068 c 2.5045,16.91582 2.5045,22.54082 8.1295,22.54082 l 11.25,0 c 5.62498,0 5.62498,-5.625 8.11348,-22.39611 l 4.793,-74.88539 c 0,-2.19174 1.7768,-3.9685 3.9685,-3.9685 2.1917,0 3.9685,1.77676 3.9685,3.9685 l 4.777,74.74068 c 2.5045,16.91582 2.5045,22.54082 8.1295,22.54082 l 11.25,0 c 5.625,0 5.625,-5.625 8.1135,-22.39611 l 4.793,-74.88538 c 0,-2.19175 1.7768,-3.96851 3.9685,-3.96851 2.1917,0 3.9685,1.77676 3.9685,3.96851 l 4.777,74.74067 c 2.5045,16.91582 2.5045,22.54082 8.1295,22.54082 l 11.25,0 c 5.625,0 5.625,-5.625 8.1135,-22.39612 l 4.793,-74.88537 c 0,-2.19175 1.7768,-3.96851 3.9685,-3.96851 2.1917,0 3.9685,1.77676 3.9685,3.96851 l 4.7769,74.74067 c 2.5046,16.91582 2.5046,22.54082 8.1296,22.54082 l 11.25,0 c 5.625,0 5.625,-5.625 8.1135,-22.39612 l 4.793,-74.88537 c 0,-2.19175 1.7768,-3.96851 3.9685,-3.96851 2.1917,0 3.9685,1.77676 3.9685,3.96851 l 4.777,74.74067 c 2.5045,16.91582 2.5045,22.54082 8.1295,22.54082 l 11.25,0 c 5.625,0 5.625,-5.625 8.1135,-22.39612 l 4.793,-74.88537 c 0,-2.19175 1.7768,-3.96851 3.9685,-3.96851 2.1917,0 3.9685,1.77676 3.9685,3.96851 l 4.777,74.74067 c 2.5045,16.91582 2.5045,22.54082 8.1295,22.54082 l 11.25,0 c 5.625,0 5.625,-5.625 8.1135,-22.39612 l 4.793,-74.88537 c 0,-2.19174 1.7768,-3.96851 3.9685,-3.96851 2.1918,0 3.9685,1.77677 3.9685,3.96851 l 4.777,74.74068 c 2.5045,16.91581 2.5045,22.54082 8.1295,22.54082 l 11.25,0 c 5.625,0 5.625,-5.62501 8.1135,-22.39612 l 4.793,-74.8854 c 0,-2.19172 1.7768,-3.96849 3.9685,-3.96849 2.1918,0 3.9685,1.77677 3.9685,3.96849 l 4.777,74.7407 c 2.5045,16.91581 2.5045,22.54082 8.1295,22.54082 l 11.25,0 c 5.625,0 5.625,-5.62501 8.1135,-22.39612 l 4.793,-74.8854 c 0,-2.19172 1.7768,-3.96849 3.9685,-3.96849 2.1917,0 3.9685,1.77677 3.9685,3.96849 l 4.7769,74.7407 c 2.5046,16.91581 2.5046,22.54082 8.1296,22.54082 l 11.25,0 c 5.625,0 5.625,-5.62501 8.1135,-22.39612 l 4.793,-74.8854 c 0,-2.19172 1.7768,-3.96849 3.9685,-3.96849 2.1917,0 3.9685,1.77677 3.9685,3.96849 l 4.777,74.7407 c 2.5045,16.91581 2.5045,22.54082 8.1295,22.54082 l 11.25,0 c 5.625,0 5.625,-5.62501 8.1135,-22.39612 l 4.793,-74.88538 c 0,-2.19174 1.7768,-3.96851 3.9685,-3.96851 2.1918,0 3.9685,1.77677 3.9685,3.96851 l 4.777,74.74068 c 2.5045,16.91581 2.5045,22.54082 8.1295,22.54082 l 11.25,0 c 5.625,0 5.625,-5.62501 8.1134,-22.39614 l 4.7931,-74.88536 c 0,-2.19174 1.7768,-3.96851 3.9685,-3.96851 2.1917,0 3.9685,1.77677 3.9685,3.96851 l 4.7769,74.74068 c 2.5046,16.91581 2.5046,22.54082 8.1296,22.54082 l 11.25,0 c 5.625,0 5.625,-5.62501 8.1135,-22.39614 l 4.793,-74.88536 c 0,-2.19174 1.7768,-3.96851 3.9685,-3.96851 2.1917,0 3.9685,1.77677 3.9685,3.96851 l 4.777,74.74068 c 2.5045,16.91581 2.5045,22.54082 8.1295,22.54082 l 11.25,0 c 5.625,0 5.625,-5.62501 8.1135,-22.39614 l 4.793,-74.88536 c 0,-2.19174 1.7768,-3.96851 3.9685,-3.96851 2.1918,0 3.9685,1.77677 3.9685,3.96851 l 4.777,74.74068 c 2.5045,16.91581 2.5045,22.54082 8.1295,22.54082 l 11.25,0 c 5.625,0 5.625,-5.62501 8.1134,-22.39614 l 8.7616,-78.85387 1.2034,-17.4375 0,-44.4375"
         style="fill:none;stroke:#ff0000;stroke-width:1.06299213000000004;stroke-linecap:round;stroke-linejoin:round;stroke-miterlimit:4;stroke-opacity:1;stroke-dasharray:none" />
    </g>
  </g>
</svg>
