<?xml version="1.0" encoding="UTF-8" standalone="no"?>
<!-- Created with Inkscape (http://www.inkscape.org/) -->

<svg
   xmlns:dc="http://purl.org/dc/elements/1.1/"
   xmlns:cc="http://creativecommons.org/ns#"
   xmlns:rdf="http://www.w3.org/1999/02/22-rdf-syntax-ns#"
   xmlns:svg="http://www.w3.org/2000/svg"
   xmlns="http://www.w3.org/2000/svg"
   xmlns:sodipodi="http://sodipodi.sourceforge.net/DTD/sodipodi-0.dtd"
   xmlns:inkscape="http://www.inkscape.org/namespaces/inkscape"
   width="1800"
   height="1080"
   id="svg2"
   version="1.1"
   inkscape:version="0.48.5 r10040"
   sodipodi:docname="wire_rack.svg">
  <sodipodi:namedview
     id="base"
     pagecolor="#ffffff"
     bordercolor="#666666"
     borderopacity="1.0"
     inkscape:pageopacity="0.0"
     inkscape:pageshadow="2"
     inkscape:zoom="0.44444444"
     inkscape:cx="900"
     inkscape:cy="540"
     inkscape:document-units="in"
     inkscape:current-layer="svg2"
     showgrid="true"
     units="in"
     borderlayer="true"
     inkscape:showpageshadow="false"
     guidecolor="#ff00d2"
     guideopacity="0.31372549"
     inkscape:window-width="1280"
     inkscape:window-height="753"
     inkscape:window-x="0"
     inkscape:window-y="20"
     inkscape:window-maximized="1">
    <inkscape:grid
       type="xygrid"
       id="grid2985"
       empspacing="4"
       visible="true"
       enabled="true"
       snapvisiblegridlinesonly="true"
       units="in"
       spacingx="0.25in"
       spacingy="0.25in"
       color="#f000ff"
       opacity="0.0627451"
       empcolor="#f000ff"
       empopacity="0.1254902" />
    <sodipodi:guide
       position="202.5,1057.5"
       orientation="1035,0"
       id="guide2992" />
    <sodipodi:guide
       position="202.5,22.500009"
       orientation="0,1395"
       id="guide2994" />
    <sodipodi:guide
       position="1597.5,22.500009"
       orientation="-1035,0"
       id="guide2996" />
    <sodipodi:guide
       position="1597.5,1057.5"
       orientation="0,-1395"
       id="guide2998" />
    <inkscape:grid
       dotted="true"
       spacingy="0.0625in"
       spacingx="0.0625in"
       units="in"
       snapvisiblegridlinesonly="true"
       enabled="false"
       visible="true"
       empspacing="5"
       id="grid4034"
       type="xygrid" />
  </sodipodi:namedview>
  <defs
     id="defs4" />
  <metadata
     id="metadata7">
    <rdf:RDF>
      <cc:Work
         rdf:about="">
        <dc:format>image/svg+xml</dc:format>
        <dc:type
           rdf:resource="http://purl.org/dc/dcmitype/StillImage" />
      </cc:Work>
    </rdf:RDF>
  </metadata>
  <g
     inkscape:label="Layer 1"
     inkscape:groupmode="layer"
     id="layer1"
     transform="translate(0,27.64025)" />
  <g
     inkscape:label="newlayer"
     inkscape:groupmode="layer"
     id="g3128" />
  <g
     id="g3394"
     inkscape:groupmode="layer"
     inkscape:label="newlayer" />
  <g
     id="g3507"
     style="fill:none;stroke:#ff0000;stroke-opacity:1;stroke-width:1.41732283000000003;stroke-miterlimit:4;stroke-dasharray:none;stroke-linejoin:round;stroke-linecap:round">
    <g
       id="g3492"
       style="fill:none;stroke:#ff0000;stroke-opacity:1;stroke-width:1.41732283000000003;stroke-miterlimit:4;stroke-dasharray:none;stroke-linejoin:round;stroke-linecap:round">
      <g
         style="fill:none;stroke:#ff0000;stroke-opacity:1;stroke-width:1.41732283000000003;stroke-miterlimit:4;stroke-dasharray:none;stroke-linejoin:round;stroke-linecap:round"
         id="g4477">
        <g
           style="fill:none;stroke:#ff0000;stroke-opacity:1;stroke-width:1.41732283000000003;stroke-miterlimit:4;stroke-dasharray:none;stroke-linejoin:round;stroke-linecap:round"
           id="g4025"
           transform="matrix(1,0,0,-1,201.65862,630)">
          <g
             style="fill:none;stroke:#ff0000;stroke-opacity:1;stroke-width:1.41732283000000003;stroke-miterlimit:4;stroke-dasharray:none;stroke-linejoin:round;stroke-linecap:round"
             transform="translate(-675.95862,21.6)"
             id="g3211">
            <path
               sodipodi:nodetypes="cccccc"
               inkscape:connector-curvature="0"
               id="path3176"
               inkscape:label="part"
               style="fill:none;stroke:#ff0000;stroke-opacity:1;stroke-width:1.41732283000000003;stroke-miterlimit:4;stroke-dasharray:none;stroke-linejoin:round;stroke-linecap:round"
               d="m 676.8,563.4 0,-90.76214 C 676.8,428.4 699.3,428.4 743.45862,428.4 l 1262.13738,0 c 68.004,0 68.004,22.5 68.004,45 l 0,90" />
          </g>
          <path
             inkscape:connector-curvature="0"
             id="path3223"
             d="m 95.34138,490.5 c 0,2.48528 -2.01472,4.5 -4.5,4.5 -2.48528,0 -4.5,-2.01472 -4.5,-4.5 0,-2.48528 2.01472,-4.5 4.5,-4.5 2.48528,0 4.5,2.01472 4.5,4.5 z"
             style="fill:none;fill-opacity:0.78440365999999984;stroke:#ff0000;stroke-opacity:1;stroke-width:1.41732283000000003;stroke-miterlimit:4;stroke-dasharray:none;stroke-linejoin:round;stroke-linecap:round" />
          <path
             inkscape:connector-curvature="0"
             id="path3223-0"
             d="m 500.34138,490.5 c 0,2.48528 -2.01472,4.5 -4.5,4.5 -2.48528,0 -4.5,-2.01472 -4.5,-4.5 0,-2.48528 2.01472,-4.5 4.5,-4.5 2.48528,0 4.5,2.01472 4.5,4.5 z"
             style="fill:none;fill-opacity:0.78440365999999984;stroke:#ff0000;stroke-opacity:1;stroke-width:1.41732283000000003;stroke-miterlimit:4;stroke-dasharray:none;stroke-linejoin:round;stroke-linecap:round" />
          <path
             transform="matrix(0.4,0,0,0.4,918.84138,324)"
             d="m 135,416.25 c 0,6.2132 -5.0368,11.25 -11.25,11.25 -6.2132,0 -11.25,-5.0368 -11.25,-11.25 0,-6.2132 5.0368,-11.25 11.25,-11.25 6.2132,0 11.25,5.0368 11.25,11.25 z"
             sodipodi:ry="11.25"
             sodipodi:rx="11.25"
             sodipodi:cy="416.25"
             sodipodi:cx="123.75"
             id="path3223-3"
             style="fill:none;fill-opacity:0.78440365999999984;stroke:#ff0000;stroke-opacity:1;stroke-width:3.54330707000000000;stroke-miterlimit:4;stroke-dasharray:none;stroke-linejoin:round;stroke-linecap:round"
             sodipodi:type="arc" />
          <path
             transform="matrix(0.4,0,0,0.4,1256.3414,324)"
             d="m 135,416.25 c 0,6.2132 -5.0368,11.25 -11.25,11.25 -6.2132,0 -11.25,-5.0368 -11.25,-11.25 0,-6.2132 5.0368,-11.25 11.25,-11.25 6.2132,0 11.25,5.0368 11.25,11.25 z"
             sodipodi:ry="11.25"
             sodipodi:rx="11.25"
             sodipodi:cy="416.25"
             sodipodi:cx="123.75"
             id="path3223-36"
             style="fill:none;fill-opacity:0.78440365999999984;stroke:#ff0000;stroke-opacity:1;stroke-width:3.54330707000000000;stroke-miterlimit:4;stroke-dasharray:none;stroke-linejoin:round;stroke-linecap:round"
             sodipodi:type="arc" />
        </g>
        <g
           id="g4472"
           style="fill:none;stroke:#ff0000;stroke-width:1.41732283000000003;stroke-linecap:round;stroke-linejoin:round;stroke-miterlimit:4;stroke-opacity:1;stroke-dasharray:none"
           transform="translate(0,-360)">
          <g
             transform="translate(-474.3,-136.8)"
             id="g3217"
             style="fill:none;stroke:#ff0000;stroke-width:1.41732283000000003;stroke-linecap:round;stroke-linejoin:round;stroke-miterlimit:4;stroke-opacity:1;stroke-dasharray:none" />
          <path
             style="fill:none;stroke:#ff0000;stroke-width:1.41732283000000003;stroke-linecap:round;stroke-linejoin:round;stroke-miterlimit:4;stroke-opacity:1;stroke-dasharray:none"
             d="m 202.5,540 0,45.94136 0.59662,15.93364 8.74546,78.70918 c 2.50454,16.91582 2.50454,22.54082 8.12954,22.54082 l 11.25,0 c 5.625,0 5.625,-5.625 8.11346,-22.39611 l 4.79304,-74.88539 c 0,-2.19174 1.77676,-3.9685 3.9685,-3.9685 2.19174,0 3.9685,1.77676 3.9685,3.9685 l 4.77696,74.74068 c 2.50454,16.91582 2.50454,22.54082 8.12954,22.54082 l 11.25,0 c 5.625,0 5.625,-5.625 8.11346,-22.39611 l 4.79304,-74.88539 c 0,-2.19174 1.77676,-3.9685 3.9685,-3.9685 2.19174,0 3.9685,1.77676 3.9685,3.9685 l 4.77696,74.74068 c 2.50454,16.91582 2.50454,22.54082 8.12954,22.54082 l 11.25,0 c 5.625,0 5.625,-5.625 8.11346,-22.39611 l 4.79304,-74.88539 c 0,-2.19174 1.77676,-3.9685 3.9685,-3.9685 2.19174,0 3.9685,1.77676 3.9685,3.9685 l 4.77696,74.74068 c 2.50454,16.91582 2.50454,22.54082 8.12954,22.54082 l 11.25,0 c 5.625,0 5.625,-5.625 8.11346,-22.39611 l 4.79304,-74.88538 c 0,-2.19175 1.77676,-3.96851 3.9685,-3.96851 2.19175,0 3.96851,1.77676 3.96851,3.96851 l 4.77695,74.74067 c 2.50454,16.91582 2.50454,22.54082 8.12954,22.54082 l 11.25001,0 c 5.62498,0 5.62498,-5.625 8.11345,-22.39612 l 4.79304,-74.88537 c 0,-2.19175 1.77676,-3.96851 3.9685,-3.96851 2.19174,0 3.9685,1.77676 3.9685,3.96851 l 4.77695,74.74067 c 2.50454,16.91582 2.50454,22.54082 8.12955,22.54082 l 11.25,0 c 5.62501,0 5.62501,-5.625 8.11346,-22.39612 l 4.79303,-74.88537 c 0,-2.19175 1.77677,-3.96851 3.96851,-3.96851 2.19174,0 3.9685,1.77676 3.9685,3.96851 l 4.77697,74.74067 c 2.50454,16.91582 2.50454,22.54082 8.12952,22.54082 l 11.25001,0 c 5.625,0 5.625,-5.625 8.11346,-22.39612 l 4.79305,-74.88537 c 0,-2.19175 1.77674,-3.96851 3.96849,-3.96851 2.19174,0 3.9685,1.77676 3.9685,3.96851 l 4.77696,74.74067 c 2.50454,16.91582 2.50454,22.54082 8.12955,22.54082 l 11.24999,0 c 5.625,0 5.625,-5.625 8.11345,-22.39612 l 4.79305,-74.88537 c 0,-2.19174 1.77676,-3.96851 3.9685,-3.96851 2.19175,0 3.96851,1.77677 3.96851,3.96851 l 4.77695,74.74068 c 2.50454,16.91581 2.50454,22.54082 8.12954,22.54082 l 11.25001,0 c 5.62499,0 5.62499,-5.62501 8.11345,-22.39612 l 4.79304,-74.8854 c 0,-2.19172 1.77676,-3.96849 3.9685,-3.96849 2.19175,0 3.96851,1.77677 3.96851,3.96849 l 4.77695,74.7407 c 2.50453,16.91581 2.50453,22.54082 8.12954,22.54082 l 11.25,0 c 5.62499,0 5.62499,-5.62501 8.11346,-22.39612 l 4.79304,-74.8854 c 0,-2.19172 1.77676,-3.96849 3.9685,-3.96849 2.19174,0 3.9685,1.77677 3.9685,3.96849 l 4.77695,74.7407 c 2.50456,16.91581 2.50456,22.54082 8.12955,22.54082 l 11.25,0 c 5.62501,0 5.62501,-5.62501 8.11346,-22.39612 l 4.79303,-74.8854 c 0,-2.19172 1.77676,-3.96849 3.96851,-3.96849 2.19174,0 3.9685,1.77677 3.9685,3.96849 l 4.77697,74.7407 c 2.50453,16.91581 2.50453,22.54082 8.12952,22.54082 l 11.25001,0 c 5.625,0 5.625,-5.62501 8.11346,-22.39612 l 4.79305,-74.88538 c 0,-2.19174 1.77676,-3.96851 3.96849,-3.96851 2.19175,0 3.96851,1.77677 3.96851,3.96851 l 4.77695,74.74068 c 2.50454,16.91581 2.50454,22.54082 8.12955,22.54082 l 11.25,0 c 5.62498,0 5.62498,-5.62501 8.11344,-22.39614 l 4.79305,-74.88536 c 0,-2.19174 1.77676,-3.96851 3.96849,-3.96851 2.19175,0 3.96851,1.77677 3.96851,3.96851 l 4.77695,74.74068 c 2.50454,16.91581 2.50454,22.54082 8.12955,22.54082 l 11.25,0 c 5.62501,0 5.62501,-5.62501 8.11347,-22.39614 l 4.79302,-74.88536 c 0,-2.19174 1.77677,-3.96851 3.96852,-3.96851 2.19172,0 3.96848,1.77677 3.96848,3.96851 l 4.77698,74.74068 c 2.50454,16.91581 2.50454,22.54082 8.12952,22.54082 l 11.25,0 c 5.62501,0 5.62501,-5.62501 8.11347,-22.39614 l 4.79305,-74.88536 c 0,-2.19174 1.77674,-3.96851 3.96849,-3.96851 2.19175,0 3.96851,1.77677 3.96851,3.96851 l 4.77695,74.74068 c 2.50454,16.91581 2.50454,22.54082 8.12955,22.54082 l 11.25,0 c 5.62498,0 5.62498,-5.62501 8.11344,-22.39614 l 4.79305,-74.88537 c 0,-2.19174 1.77676,-3.9685 3.9685,-3.9685 2.19174,0 3.9685,1.77676 3.9685,3.9685 l 4.77696,74.74068 c 2.50454,16.91582 2.50454,22.54082 8.12954,22.54082 l 11.25,0 c 5.625,0 5.625,-5.625 8.11346,-22.39611 l 4.79304,-74.88539 c 0,-2.19174 1.77676,-3.9685 3.9685,-3.9685 2.19174,0 3.9685,1.77676 3.9685,3.9685 l 4.777,74.74068 c 2.5045,16.91582 2.5045,22.54082 8.1295,22.54082 l 11.25,0 c 5.62498,0 5.62498,-5.625 8.11348,-22.39611 l 4.793,-74.88539 c 0,-2.19174 1.7768,-3.9685 3.9685,-3.9685 2.1917,0 3.9685,1.77676 3.9685,3.9685 l 4.777,74.74068 c 2.5045,16.91582 2.5045,22.54082 8.1295,22.54082 l 11.25,0 c 5.625,0 5.625,-5.625 8.1135,-22.39611 l 4.793,-74.88538 c 0,-2.19175 1.7768,-3.96851 3.9685,-3.96851 2.1917,0 3.9685,1.77676 3.9685,3.96851 l 4.777,74.74067 c 2.5045,16.91582 2.5045,22.54082 8.1295,22.54082 l 11.25,0 c 5.625,0 5.625,-5.625 8.1135,-22.39612 l 4.793,-74.88537 c 0,-2.19175 1.7768,-3.96851 3.9685,-3.96851 2.1917,0 3.9685,1.77676 3.9685,3.96851 l 4.7769,74.74067 c 2.5046,16.91582 2.5046,22.54082 8.1296,22.54082 l 11.25,0 c 5.625,0 5.625,-5.625 8.1135,-22.39612 l 4.793,-74.88537 c 0,-2.19175 1.7768,-3.96851 3.9685,-3.96851 2.1917,0 3.9685,1.77676 3.9685,3.96851 l 4.777,74.74067 c 2.5045,16.91582 2.5045,22.54082 8.1295,22.54082 l 11.25,0 c 5.625,0 5.625,-5.625 8.1135,-22.39612 l 4.793,-74.88537 c 0,-2.19175 1.7768,-3.96851 3.9685,-3.96851 2.1917,0 3.9685,1.77676 3.9685,3.96851 l 4.777,74.74067 c 2.5045,16.91582 2.5045,22.54082 8.1295,22.54082 l 11.25,0 c 5.625,0 5.625,-5.625 8.1135,-22.39612 l 4.793,-74.88537 c 0,-2.19174 1.7768,-3.96851 3.9685,-3.96851 2.1918,0 3.9685,1.77677 3.9685,3.96851 l 4.777,74.74068 c 2.5045,16.91581 2.5045,22.54082 8.1295,22.54082 l 11.25,0 c 5.625,0 5.625,-5.62501 8.1135,-22.39612 l 4.793,-74.8854 c 0,-2.19172 1.7768,-3.96849 3.9685,-3.96849 2.1918,0 3.9685,1.77677 3.9685,3.96849 l 4.777,74.7407 c 2.5045,16.91581 2.5045,22.54082 8.1295,22.54082 l 11.25,0 c 5.625,0 5.625,-5.62501 8.1135,-22.39612 l 4.793,-74.8854 c 0,-2.19172 1.7768,-3.96849 3.9685,-3.96849 2.1917,0 3.9685,1.77677 3.9685,3.96849 l 4.7769,74.7407 c 2.5046,16.91581 2.5046,22.54082 8.1296,22.54082 l 11.25,0 c 5.625,0 5.625,-5.62501 8.1135,-22.39612 l 4.793,-74.8854 c 0,-2.19172 1.7768,-3.96849 3.9685,-3.96849 2.1917,0 3.9685,1.77677 3.9685,3.96849 l 4.777,74.7407 c 2.5045,16.91581 2.5045,22.54082 8.1295,22.54082 l 11.25,0 c 5.625,0 5.625,-5.62501 8.1135,-22.39612 l 4.793,-74.88538 c 0,-2.19174 1.7768,-3.96851 3.9685,-3.96851 2.1918,0 3.9685,1.77677 3.9685,3.96851 l 4.777,74.74068 c 2.5045,16.91581 2.5045,22.54082 8.1295,22.54082 l 11.25,0 c 5.625,0 5.625,-5.62501 8.1134,-22.39614 l 4.7931,-74.88536 c 0,-2.19174 1.7768,-3.96851 3.9685,-3.96851 2.1917,0 3.9685,1.77677 3.9685,3.96851 l 4.7769,74.74068 c 2.5046,16.91581 2.5046,22.54082 8.1296,22.54082 l 11.25,0 c 5.625,0 5.625,-5.62501 8.1135,-22.39614 l 4.793,-74.88536 c 0,-2.19174 1.7768,-3.96851 3.9685,-3.96851 2.1917,0 3.9685,1.77677 3.9685,3.96851 l 4.777,74.74068 c 2.5045,16.91581 2.5045,22.54082 8.1295,22.54082 l 11.25,0 c 5.625,0 5.625,-5.62501 8.1135,-22.39614 l 4.793,-74.88536 c 0,-2.19174 1.7768,-3.96851 3.9685,-3.96851 2.1918,0 3.9685,1.77677 3.9685,3.96851 l 4.777,74.74068 c 2.5045,16.91581 2.5045,22.54082 8.1295,22.54082 l 11.25,0 c 5.625,0 5.625,-5.62501 8.1134,-22.39614 l 8.7616,-78.85387 1.2034,-17.4375 0,-44.4375"
             id="path4036-3-4"
             inkscape:connector-curvature="0"
             sodipodi:nodetypes="ccccccccsccccccsccccccsccccccsccccccsccccccsccccccsccccccsccccccsccccccsccccccsccccccsccccccsccccccsccccccsccccccsccccccsccccccsccccccsccccccsccccccsccccccsccccccsccccccsccccccsccccccsccccccsccccccsccccccsccccccscccccccc" />
        </g>
      </g>
      <path
         id="path3412"
         inkscape:label="part"
         style="fill:none;stroke:#ff0000;stroke-opacity:1;stroke-width:1.41732283000000003;stroke-miterlimit:4;stroke-dasharray:none;stroke-linejoin:round;stroke-linecap:round"
         d="m 202.5,45 95.4,0 0,-23.4 90.9,0 0,23.4 94.95,0 0,-23.4 90.9,0 0,23.4 94.95,0 0,-23.4 90.9,0 0,23.4 94.95,0 0,-23.4 90.9,0 0,23.4 94.95,0 0,-23.4 90.9,0 0,23.4 94.95,0 0,-23.4 90.9,0 0,23.4 94.95,0 0,-23.4 90.9,0 0,23.4 95.4,0"
         inkscape:connector-curvature="0" />
    </g>
    <path
       inkscape:connector-curvature="0"
       d="m 1599.3,180 -96.3,0 0,23.4 -89.1,0 0,-23.4 m -96.75,0 0,23.4 -89.1,0 0,-23.4 m -96.75,0 0,23.4 -89.1,0 0,-23.4 m -96.75,0 0,23.4 -89.1,0 0,-23.4 m -96.75,0 0,23.4 -89.1,0 0,-23.4 m -96.75,0 0,23.4 -89.1,0 0,-23.4 m -96.75,0 0,23.4 -89.1,0 0,-23.4 -96.3,0"
       style="fill:none;stroke:#ff0000;stroke-opacity:1;stroke-width:1.41732283000000003;stroke-miterlimit:4;stroke-dasharray:none;stroke-linejoin:round;stroke-linecap:round"
       inkscape:label="part"
       id="path3440"
       sodipodi:nodetypes="cccccccccccccccccccccccccccccc" />
  </g>
</svg>
