<?xml version="1.0" encoding="UTF-8" standalone="no"?>
<!-- Created with Inkscape (http://www.inkscape.org/) -->

<svg
   xmlns:dc="http://purl.org/dc/elements/1.1/"
   xmlns:cc="http://creativecommons.org/ns#"
   xmlns:rdf="http://www.w3.org/1999/02/22-rdf-syntax-ns#"
   xmlns:svg="http://www.w3.org/2000/svg"
   xmlns="http://www.w3.org/2000/svg"
   xmlns:sodipodi="http://sodipodi.sourceforge.net/DTD/sodipodi-0.dtd"
   xmlns:inkscape="http://www.inkscape.org/namespaces/inkscape"
   width="152.3622"
   height="113.38583"
   id="svg5428"
   version="1.1"
   inkscape:version="0.48.3.1 r9886"
   sodipodi:docname="leafthing_japan.svg">
  <defs
     id="defs5430" />
  <sodipodi:namedview
     id="base"
     pagecolor="#ffffff"
     bordercolor="#666666"
     borderopacity="1.0"
     inkscape:pageopacity="0.0"
     inkscape:pageshadow="2"
     inkscape:zoom="3.5802557"
     inkscape:cx="75.15718"
     inkscape:cy="56.797321"
     inkscape:document-units="px"
     inkscape:current-layer="layer3"
     showgrid="false"
     showguides="true"
     inkscape:guide-bbox="true"
     inkscape:object-nodes="true"
     units="cm"
     inkscape:window-width="1280"
     inkscape:window-height="749"
     inkscape:window-x="0"
     inkscape:window-y="27"
     inkscape:window-maximized="1" />
  <metadata
     id="metadata5433">
    <rdf:RDF>
      <cc:Work
         rdf:about="">
        <dc:format>image/svg+xml</dc:format>
        <dc:type
           rdf:resource="http://purl.org/dc/dcmitype/StillImage" />
        <dc:title />
      </cc:Work>
    </rdf:RDF>
  </metadata>
  <g
     inkscape:groupmode="layer"
     id="layer3"
     inkscape:label="pattern"
     style="display:inline"
     transform="translate(0,-938.97504)">
    <g
       id="g3241"
       transform="translate(-12.476595,16.707789)">
      <g
         transform="translate(-155.73314,100.15778)"
         id="g6034"
         style="display:inline">
        <path
           style="fill:none;stroke:#ff0000;stroke-width:1.41732287;stroke-linecap:round;stroke-linejoin:round;stroke-miterlimit:4;stroke-opacity:1;stroke-dasharray:none;stroke-dashoffset:0"
           d="m 246.32197,919.46674 c 0,0 3.85028,-7.80224 12.63418,-7.7457 8.78391,0.0565 13.11041,7.73989 13.11041,7.73989 l 7.33027,-8.02948 c 0,0 -0.91905,-1.39044 -2.39152,-2.62457 -3.87601,-3.24866 -9.52448,-1.18638 -9.52448,-1.18638 0,0 -1.09345,-8.58242 -8.29709,-8.53675 -7.20364,0.0457 -8.85428,8.56327 -8.85428,8.56327 0,0 -5.747,-1.61588 -8.93011,0.78613 -1.77175,1.33698 -2.55285,3.1831 -2.55285,3.1831 z"
           id="path5500"
           inkscape:connector-curvature="0"
           sodipodi:nodetypes="czccsczcscc" />
        <path
           style="fill:none;stroke:#ff0000;stroke-width:1.41732287;stroke-linecap:round;stroke-linejoin:round;stroke-miterlimit:4;stroke-opacity:1;stroke-dasharray:none;stroke-dashoffset:0"
           d="m 282.53634,908.97697 c -1.26085,-4.65848 -6.65755,-6.09746 -8.82926,-6.30662 -4.57121,-0.44025 -2.90423,-1.84243 -5.73329,-4.75862 -2.42565,-2.50035 -5.15996,-3.5589 -9.28793,-3.50157 -4.12797,0.0573 -6.01995,0.91732 -8.82926,3.4973 -2.80931,2.57998 -1.16208,4.31837 -5.73329,4.75862 -2.17171,0.20916 -7.56841,1.64815 -8.82926,6.30663"
           id="path6012-4"
           inkscape:connector-curvature="0"
           sodipodi:nodetypes="csszssc" />
        <path
           style="fill:none;stroke:#ff0000;stroke-width:1.41732287;stroke-linecap:round;stroke-linejoin:round;stroke-miterlimit:4;stroke-opacity:1;stroke-dasharray:none;stroke-dashoffset:0"
           d="m 254.04189,923.76458 c 3.72664,2.40798 4.93063,7.39594 4.93063,7.39594 0,0 1.31866,-5.10262 4.75863,-7.05195 0,0 -0.63156,-3.89689 -4.58662,-3.89863 -3.95507,-0.002 -5.10264,3.55464 -5.10264,3.55464 z"
           id="path6032"
           inkscape:connector-curvature="0"
           sodipodi:nodetypes="ccczc" />
      </g>
      <g
         id="g6034-1-4"
         transform="translate(-124.72504,78.048089)"
         style="display:inline">
        <path
           style="fill:none;stroke:#ff0000;stroke-width:1.41732287;stroke-linecap:round;stroke-linejoin:round;stroke-miterlimit:4;stroke-opacity:1;stroke-dasharray:none;stroke-dashoffset:0"
           d="m 246.32197,919.46674 c 0,0 3.85028,-7.80224 12.63418,-7.7457 8.78391,0.0565 13.11041,7.73989 13.11041,7.73989 l 7.33027,-8.02948 c 0,0 -0.91905,-1.39044 -2.39152,-2.62457 -3.87601,-3.24866 -9.52448,-1.18638 -9.52448,-1.18638 0,0 -1.09345,-8.58242 -8.29709,-8.53675 -7.20364,0.0457 -8.85428,8.56327 -8.85428,8.56327 0,0 -5.747,-1.61588 -8.93011,0.78613 -1.77175,1.33698 -2.55285,3.1831 -2.55285,3.1831 z"
           id="path5500-0-9"
           inkscape:connector-curvature="0"
           sodipodi:nodetypes="czccsczcscc" />
        <path
           style="fill:none;stroke:#ff0000;stroke-width:1.41732287;stroke-linecap:round;stroke-linejoin:round;stroke-miterlimit:4;stroke-opacity:1;stroke-dasharray:none;stroke-dashoffset:0"
           d="m 282.53634,908.97697 c -1.26085,-4.65848 -6.65755,-6.09746 -8.82926,-6.30662 -4.57121,-0.44025 -2.90423,-1.84243 -5.73329,-4.75862 -2.42565,-2.50035 -5.15996,-3.5589 -9.28793,-3.50157 -4.12797,0.0573 -6.01995,0.91732 -8.82926,3.4973 -2.80931,2.57998 -1.16208,4.31837 -5.73329,4.75862 -2.17171,0.20916 -7.56841,1.64815 -8.82926,6.30663"
           id="path6012-4-9-8"
           inkscape:connector-curvature="0"
           sodipodi:nodetypes="csszssc" />
        <path
           style="fill:none;stroke:#ff0000;stroke-width:1.41732287;stroke-linecap:round;stroke-linejoin:round;stroke-miterlimit:4;stroke-opacity:1;stroke-dasharray:none;stroke-dashoffset:0"
           d="m 254.04189,923.76458 c 3.72664,2.40798 4.93063,7.39594 4.93063,7.39594 0,0 1.31866,-5.10262 4.75863,-7.05195 0,0 -0.63156,-3.89689 -4.58662,-3.89863 -3.95507,-0.002 -5.10264,3.55464 -5.10264,3.55464 z"
           id="path6032-5-68"
           inkscape:connector-curvature="0"
           sodipodi:nodetypes="ccczc" />
      </g>
      <g
         id="g6034-1-6-4"
         transform="translate(-124.73069,34.070525)"
         style="display:inline">
        <path
           style="fill:none;stroke:#ff0000;stroke-width:1.41732287;stroke-linecap:round;stroke-linejoin:round;stroke-miterlimit:4;stroke-opacity:1;stroke-dasharray:none;stroke-dashoffset:0"
           d="m 246.32197,919.46674 c 0,0 3.85028,-7.80224 12.63418,-7.7457 8.78391,0.0565 13.11041,7.73989 13.11041,7.73989 l 7.33027,-8.02948 c 0,0 -0.91905,-1.39044 -2.39152,-2.62457 -3.87601,-3.24866 -9.52448,-1.18638 -9.52448,-1.18638 0,0 -1.09345,-8.58242 -8.29709,-8.53675 -7.20364,0.0457 -8.85428,8.56327 -8.85428,8.56327 0,0 -5.747,-1.61588 -8.93011,0.78613 -1.77175,1.33698 -2.55285,3.1831 -2.55285,3.1831 z"
           id="path5500-0-8-31"
           inkscape:connector-curvature="0"
           sodipodi:nodetypes="czccsczcscc" />
        <path
           style="fill:none;stroke:#ff0000;stroke-width:1.41732287;stroke-linecap:round;stroke-linejoin:round;stroke-miterlimit:4;stroke-opacity:1;stroke-dasharray:none;stroke-dashoffset:0"
           d="m 282.53634,908.97697 c -1.26085,-4.65848 -6.65755,-6.09746 -8.82926,-6.30662 -4.57121,-0.44025 -2.90423,-1.84243 -5.73329,-4.75862 -2.42565,-2.50035 -5.15996,-3.5589 -9.28793,-3.50157 -4.12797,0.0573 -6.01995,0.91732 -8.82926,3.4973 -2.80931,2.57998 -1.16208,4.31837 -5.73329,4.75862 -2.17171,0.20916 -7.56841,1.64815 -8.82926,6.30663"
           id="path6012-4-9-5-2"
           inkscape:connector-curvature="0"
           sodipodi:nodetypes="csszssc" />
        <path
           style="fill:none;stroke:#ff0000;stroke-width:1.41732287;stroke-linecap:round;stroke-linejoin:round;stroke-miterlimit:4;stroke-opacity:1;stroke-dasharray:none;stroke-dashoffset:0"
           d="m 254.04189,923.76458 c 3.72664,2.40798 4.93063,7.39594 4.93063,7.39594 0,0 1.31866,-5.10262 4.75863,-7.05195 0,0 -0.63156,-3.89689 -4.58662,-3.89863 -3.95507,-0.002 -5.10264,3.55464 -5.10264,3.55464 z"
           id="path6032-5-2-6"
           inkscape:connector-curvature="0"
           sodipodi:nodetypes="ccczc" />
      </g>
      <g
         id="g6034-7-7"
         transform="translate(-217.09093,56.055868)"
         style="display:inline">
        <path
           style="fill:none;stroke:#ff0000;stroke-width:1.41732287;stroke-linecap:round;stroke-linejoin:round;stroke-miterlimit:4;stroke-opacity:1;stroke-dasharray:none;stroke-dashoffset:0"
           d="m 246.32197,919.46674 c 0,0 3.85028,-7.80224 12.63418,-7.7457 8.78391,0.0565 13.11041,7.73989 13.11041,7.73989 l 7.33027,-8.02948 c 0,0 -0.91905,-1.39044 -2.39152,-2.62457 -3.87601,-3.24866 -9.52448,-1.18638 -9.52448,-1.18638 0,0 -1.09345,-8.58242 -8.29709,-8.53675 -7.20364,0.0457 -8.85428,8.56327 -8.85428,8.56327 0,0 -5.747,-1.61588 -8.93011,0.78613 -1.77175,1.33698 -2.55285,3.1831 -2.55285,3.1831 z"
           id="path5500-1-91"
           inkscape:connector-curvature="0"
           sodipodi:nodetypes="czccsczcscc" />
        <path
           style="fill:none;stroke:#ff0000;stroke-width:1.41732287;stroke-linecap:round;stroke-linejoin:round;stroke-miterlimit:4;stroke-opacity:1;stroke-dasharray:none;stroke-dashoffset:0"
           d="m 282.53634,908.97697 c -1.26085,-4.65848 -6.65755,-6.09746 -8.82926,-6.30662 -4.57121,-0.44025 -2.90423,-1.84243 -5.73329,-4.75862 -2.42565,-2.50035 -5.15996,-3.5589 -9.28793,-3.50157 -4.12797,0.0573 -6.01995,0.91732 -8.82926,3.4973 -2.80931,2.57998 -1.16208,4.31837 -5.73329,4.75862 -2.17171,0.20916 -7.56841,1.64815 -8.82926,6.30663"
           id="path6012-4-7-0"
           inkscape:connector-curvature="0"
           sodipodi:nodetypes="csszssc" />
        <path
           style="fill:none;stroke:#ff0000;stroke-width:1.41732287;stroke-linecap:round;stroke-linejoin:round;stroke-miterlimit:4;stroke-opacity:1;stroke-dasharray:none;stroke-dashoffset:0"
           d="m 254.04189,923.76458 c 3.72664,2.40798 4.93063,7.39594 4.93063,7.39594 0,0 1.31866,-5.10262 4.75863,-7.05195 0,0 -0.63156,-3.89689 -4.58662,-3.89863 -3.95507,-0.002 -5.10264,3.55464 -5.10264,3.55464 z"
           id="path6032-7-45"
           inkscape:connector-curvature="0"
           sodipodi:nodetypes="ccczc" />
      </g>
      <g
         id="g6034-1-6-97"
         transform="translate(-185.91499,77.459838)"
         style="display:inline">
        <path
           style="fill:none;stroke:#ff0000;stroke-width:1.41732287;stroke-linecap:round;stroke-linejoin:round;stroke-miterlimit:4;stroke-opacity:1;stroke-dasharray:none;stroke-dashoffset:0"
           d="m 246.32197,919.46674 c 0,0 3.85028,-7.80224 12.63418,-7.7457 8.78391,0.0565 13.11041,7.73989 13.11041,7.73989 l 7.33027,-8.02948 c 0,0 -0.91905,-1.39044 -2.39152,-2.62457 -3.87601,-3.24866 -9.52448,-1.18638 -9.52448,-1.18638 0,0 -1.09345,-8.58242 -8.29709,-8.53675 -7.20364,0.0457 -8.85428,8.56327 -8.85428,8.56327 0,0 -5.747,-1.61588 -8.93011,0.78613 -1.77175,1.33698 -2.55285,3.1831 -2.55285,3.1831 z"
           id="path5500-0-8-9"
           inkscape:connector-curvature="0"
           sodipodi:nodetypes="czccsczcscc" />
        <path
           style="fill:none;stroke:#ff0000;stroke-width:1.41732287;stroke-linecap:round;stroke-linejoin:round;stroke-miterlimit:4;stroke-opacity:1;stroke-dasharray:none;stroke-dashoffset:0"
           d="m 282.53634,908.97697 c -1.26085,-4.65848 -6.65755,-6.09746 -8.82926,-6.30662 -4.57121,-0.44025 -2.90423,-1.84243 -5.73329,-4.75862 -2.42565,-2.50035 -5.15996,-3.5589 -9.28793,-3.50157 -4.12797,0.0573 -6.01995,0.91732 -8.82926,3.4973 -2.80931,2.57998 -1.16208,4.31837 -5.73329,4.75862 -2.17171,0.20916 -7.56841,1.64815 -8.82926,6.30663"
           id="path6012-4-9-5-7"
           inkscape:connector-curvature="0"
           sodipodi:nodetypes="csszssc" />
        <path
           style="fill:none;stroke:#ff0000;stroke-width:1.41732287;stroke-linecap:round;stroke-linejoin:round;stroke-miterlimit:4;stroke-opacity:1;stroke-dasharray:none;stroke-dashoffset:0"
           d="m 254.04189,923.76458 c 3.72664,2.40798 4.93063,7.39594 4.93063,7.39594 0,0 1.31866,-5.10262 4.75863,-7.05195 0,0 -0.63156,-3.89689 -4.58662,-3.89863 -3.95507,-0.002 -5.10264,3.55464 -5.10264,3.55464 z"
           id="path6032-5-2-2"
           inkscape:connector-curvature="0"
           sodipodi:nodetypes="ccczc" />
      </g>
      <g
         id="g6034-1-0-0-3"
         transform="translate(-154.90585,56.084708)"
         style="display:inline">
        <path
           style="fill:none;stroke:#ff0000;stroke-width:1.41732287;stroke-linecap:round;stroke-linejoin:round;stroke-miterlimit:4;stroke-opacity:1;stroke-dasharray:none;stroke-dashoffset:0"
           d="m 246.32197,919.46674 c 0,0 3.85028,-7.80224 12.63418,-7.7457 8.78391,0.0565 13.11041,7.73989 13.11041,7.73989 l 7.33027,-8.02948 c 0,0 -0.91905,-1.39044 -2.39152,-2.62457 -3.87601,-3.24866 -9.52448,-1.18638 -9.52448,-1.18638 0,0 -1.09345,-8.58242 -8.29709,-8.53675 -7.20364,0.0457 -8.85428,8.56327 -8.85428,8.56327 0,0 -5.747,-1.61588 -8.93011,0.78613 -1.77175,1.33698 -2.55285,3.1831 -2.55285,3.1831 z"
           id="path5500-0-3-6-1"
           inkscape:connector-curvature="0"
           sodipodi:nodetypes="czccsczcscc" />
        <path
           style="fill:none;stroke:#ff0000;stroke-width:1.41732287;stroke-linecap:round;stroke-linejoin:round;stroke-miterlimit:4;stroke-opacity:1;stroke-dasharray:none;stroke-dashoffset:0"
           d="m 282.53634,908.97697 c -1.26085,-4.65848 -6.65755,-6.09746 -8.82926,-6.30662 -4.57121,-0.44025 -2.90423,-1.84243 -5.73329,-4.75862 -2.42565,-2.50035 -5.15996,-3.5589 -9.28793,-3.50157 -4.12797,0.0573 -6.01995,0.91732 -8.82926,3.4973 -2.80931,2.57998 -1.16208,4.31837 -5.73329,4.75862 -2.17171,0.20916 -7.56841,1.64815 -8.82926,6.30663"
           id="path6012-4-9-1-0-8"
           inkscape:connector-curvature="0"
           sodipodi:nodetypes="csszssc" />
        <path
           style="fill:none;stroke:#ff0000;stroke-width:1.41732287;stroke-linecap:round;stroke-linejoin:round;stroke-miterlimit:4;stroke-opacity:1;stroke-dasharray:none;stroke-dashoffset:0"
           d="m 254.04189,923.76458 c 3.72664,2.40798 4.93063,7.39594 4.93063,7.39594 0,0 1.31866,-5.10262 4.75863,-7.05195 0,0 -0.63156,-3.89689 -4.58662,-3.89863 -3.95507,-0.002 -5.10264,3.55464 -5.10264,3.55464 z"
           id="path6032-5-6-0-5"
           inkscape:connector-curvature="0"
           sodipodi:nodetypes="ccczc" />
      </g>
      <g
         id="g6034-1-4-7-5"
         transform="translate(-186.08283,33.946178)"
         style="display:inline">
        <path
           style="fill:none;stroke:#ff0000;stroke-width:1.41732287;stroke-linecap:round;stroke-linejoin:round;stroke-miterlimit:4;stroke-opacity:1;stroke-dasharray:none;stroke-dashoffset:0"
           d="m 246.32197,919.46674 c 0,0 3.85028,-7.80224 12.63418,-7.7457 8.78391,0.0565 13.11041,7.73989 13.11041,7.73989 l 7.33027,-8.02948 c 0,0 -0.91905,-1.39044 -2.39152,-2.62457 -3.87601,-3.24866 -9.52448,-1.18638 -9.52448,-1.18638 0,0 -1.09345,-8.58242 -8.29709,-8.53675 -7.20364,0.0457 -8.85428,8.56327 -8.85428,8.56327 0,0 -5.747,-1.61588 -8.93011,0.78613 -1.77175,1.33698 -2.55285,3.1831 -2.55285,3.1831 z"
           id="path5500-0-9-0-1"
           inkscape:connector-curvature="0"
           sodipodi:nodetypes="czccsczcscc" />
        <path
           style="fill:none;stroke:#ff0000;stroke-width:1.41732287;stroke-linecap:round;stroke-linejoin:round;stroke-miterlimit:4;stroke-opacity:1;stroke-dasharray:none;stroke-dashoffset:0"
           d="m 282.53634,908.97697 c -1.26085,-4.65848 -6.65755,-6.09746 -8.82926,-6.30662 -4.57121,-0.44025 -2.90423,-1.84243 -5.73329,-4.75862 -2.42565,-2.50035 -5.15996,-3.5589 -9.28793,-3.50157 -4.12797,0.0573 -6.01995,0.91732 -8.82926,3.4973 -2.80931,2.57998 -1.16208,4.31837 -5.73329,4.75862 -2.17171,0.20916 -7.56841,1.64815 -8.82926,6.30663"
           id="path6012-4-9-8-6-6"
           inkscape:connector-curvature="0"
           sodipodi:nodetypes="csszssc" />
        <path
           style="fill:none;stroke:#ff0000;stroke-width:1.41732287;stroke-linecap:round;stroke-linejoin:round;stroke-miterlimit:4;stroke-opacity:1;stroke-dasharray:none;stroke-dashoffset:0"
           d="m 254.04189,923.76458 c 3.72664,2.40798 4.93063,7.39594 4.93063,7.39594 0,0 1.31866,-5.10262 4.75863,-7.05195 0,0 -0.63156,-3.89689 -4.58662,-3.89863 -3.95507,-0.002 -5.10264,3.55464 -5.10264,3.55464 z"
           id="path6032-5-68-3-7"
           inkscape:connector-curvature="0"
           sodipodi:nodetypes="ccczc" />
      </g>
      <g
         id="g6034-7-7-2"
         transform="translate(-217.27918,100.43132)"
         style="display:inline">
        <path
           style="fill:none;stroke:#ff0000;stroke-width:1.41732287;stroke-linecap:round;stroke-linejoin:round;stroke-miterlimit:4;stroke-opacity:1;stroke-dasharray:none;stroke-dashoffset:0"
           d="m 246.32197,919.46674 c 0,0 3.85028,-7.80224 12.63418,-7.7457 8.78391,0.0565 13.11041,7.73989 13.11041,7.73989 l 7.33027,-8.02948 c 0,0 -0.91905,-1.39044 -2.39152,-2.62457 -3.87601,-3.24866 -9.52448,-1.18638 -9.52448,-1.18638 0,0 -1.09345,-8.58242 -8.29709,-8.53675 -7.20364,0.0457 -8.85428,8.56327 -8.85428,8.56327 0,0 -5.747,-1.61588 -8.93011,0.78613 -1.77175,1.33698 -2.55285,3.1831 -2.55285,3.1831 z"
           id="path5500-1-91-4"
           inkscape:connector-curvature="0"
           sodipodi:nodetypes="czccsczcscc" />
        <path
           style="fill:none;stroke:#ff0000;stroke-width:1.41732287;stroke-linecap:round;stroke-linejoin:round;stroke-miterlimit:4;stroke-opacity:1;stroke-dasharray:none;stroke-dashoffset:0"
           d="m 282.53634,908.97697 c -1.26085,-4.65848 -6.65755,-6.09746 -8.82926,-6.30662 -4.57121,-0.44025 -2.90423,-1.84243 -5.73329,-4.75862 -2.42565,-2.50035 -5.15996,-3.5589 -9.28793,-3.50157 -4.12797,0.0573 -6.01995,0.91732 -8.82926,3.4973 -2.80931,2.57998 -1.16208,4.31837 -5.73329,4.75862 -2.17171,0.20916 -7.56841,1.64815 -8.82926,6.30663"
           id="path6012-4-7-0-0"
           inkscape:connector-curvature="0"
           sodipodi:nodetypes="csszssc" />
        <path
           style="fill:none;stroke:#ff0000;stroke-width:1.41732287;stroke-linecap:round;stroke-linejoin:round;stroke-miterlimit:4;stroke-opacity:1;stroke-dasharray:none;stroke-dashoffset:0"
           d="m 254.04189,923.76458 c 3.72664,2.40798 4.93063,7.39594 4.93063,7.39594 0,0 1.31866,-5.10262 4.75863,-7.05195 0,0 -0.63156,-3.89689 -4.58662,-3.89863 -3.95507,-0.002 -5.10264,3.55464 -5.10264,3.55464 z"
           id="path6032-7-45-81"
           inkscape:connector-curvature="0"
           sodipodi:nodetypes="ccczc" />
      </g>
    </g>
  </g>
</svg>
